<svg width="30" height="31" viewBox="0 0 30 31" fill="none" xmlns="http://www.w3.org/2000/svg">
<g clip-path="url(#clip0_0_274)">
<mask id="mask0_0_274" style="mask-type:luminance" maskUnits="userSpaceOnUse" x="0" y="0" width="30" height="31">
<path d="M30 0.5H0V30.5H30V0.5Z" fill="white"/>
</mask>
<g mask="url(#mask0_0_274)">
<path d="M29.973 16.0722C29.954 16.0565 29.9266 16.0516 29.9051 16.0588C29.8789 16.0669 29.8549 16.0738 29.8323 16.0804L29.8213 16.0837C29.7655 16.1 29.7173 16.114 29.6695 16.1332C28.9151 16.4329 28.3213 16.9464 27.8539 17.7029C27.7384 17.8898 27.649 18.0842 27.5778 18.2779C27.6946 17.6261 27.7217 17.3722 27.7423 16.6429C27.7433 16.6123 27.7433 16.5812 27.7433 16.5503C27.7433 16.4659 27.7433 16.3862 27.7618 16.3135C27.7838 16.2273 27.8283 16.1414 27.8713 16.0582C27.8834 16.0346 27.8955 16.0111 27.9055 15.9904C27.909 15.9864 27.9202 15.9796 27.9245 15.9788C28.1403 15.9459 28.331 15.8543 28.5079 15.6989C28.6861 15.5415 28.8327 15.3489 28.9436 15.1261C29.3417 14.3279 29.5409 13.4455 29.5358 12.5039C29.5354 12.4131 29.5247 12.3247 29.513 12.2285C29.5076 12.1854 29.5022 12.1414 29.4977 12.0957C29.4952 12.0707 29.4797 12.0484 29.4574 12.0376C29.4353 12.0269 29.4088 12.0277 29.3865 12.0411C29.373 12.0496 29.3615 12.0564 29.351 12.0625C29.3308 12.0745 29.3154 12.0839 29.3008 12.0944C28.9613 12.3379 28.6618 12.6409 28.4105 12.9949C28.0006 13.5735 27.7621 14.2278 27.6979 14.9476C27.6915 14.8673 27.685 14.7871 27.6786 14.7068L27.6763 14.6777C27.6511 14.3632 27.6251 14.0379 27.6039 13.718C27.5986 13.637 27.583 13.5583 27.568 13.482C27.5389 13.3355 27.5115 13.197 27.5554 13.052C27.5654 13.0192 27.5738 12.9862 27.5822 12.9532C27.603 12.8716 27.7033 12.746 27.8572 12.6086L27.863 12.6034C27.9197 12.5553 28.2113 12.2885 28.3768 11.7608C28.5447 11.2247 28.532 10.6645 28.5227 10.2554L28.5225 10.2445C28.5101 9.6822 28.4494 9.25848 28.3255 8.8704C28.3094 8.82072 28.2904 8.77182 28.2703 8.72034C28.2598 8.69358 28.2491 8.66592 28.2382 8.637C28.2292 8.61246 28.2075 8.59464 28.1822 8.59044L28.1698 8.5893C28.1478 8.5893 28.1273 8.59914 28.1134 8.61612L27.993 8.76282C27.4158 9.4668 27.1322 10.2925 27.1499 11.2169C27.1531 11.3797 27.1652 11.5467 27.1868 11.7191C27.0401 11.2129 26.8681 10.72 26.6724 10.2459C26.6683 10.2355 26.6657 10.2227 26.6654 10.2118L26.6641 10.147C26.662 10.0534 26.6599 9.95664 26.6639 9.86142C26.6645 9.84564 26.6747 9.81732 26.696 9.78942C26.7262 9.74946 26.7598 9.71046 26.7945 9.66984C26.8537 9.60096 26.9148 9.52986 26.9633 9.44862C27.1192 9.18738 27.1924 8.8788 27.1937 8.47734C27.1958 8.00472 27.1229 7.50738 26.9641 6.91206C26.8773 6.58728 26.7463 6.16539 26.5024 5.78287C26.4859 5.75716 26.4673 5.73294 26.4476 5.7073C26.4388 5.69595 26.4295 5.68384 26.42 5.67084C26.4061 5.65226 26.387 5.64143 26.3562 5.64143C26.3316 5.64324 26.3096 5.65722 26.2974 5.67895C25.9912 6.23156 25.8387 6.82194 25.8315 7.4838C25.8253 8.03562 25.9115 8.51052 26.0195 8.88582C25.7446 8.38344 25.439 7.89804 25.1077 7.4376L25.1002 7.42716C25.0927 7.41714 25.0895 7.41228 25.09 7.41576C25.0691 7.26678 25.0547 7.14756 25.0447 7.04382C25.045 7.04226 25.0469 7.0335 25.0624 7.00764C25.0843 6.97038 25.1083 6.93378 25.1338 6.89514C25.1849 6.81738 25.2377 6.73692 25.2715 6.64686C25.3736 6.37496 25.3966 6.06658 25.3414 5.70445C25.2205 4.90294 24.8671 4.18122 24.2615 3.49792C24.1991 3.42777 24.1303 3.36573 24.0574 3.30016L24.0373 3.28189C24.0088 3.2561 23.9795 3.22971 23.95 3.20181C23.9312 3.18391 23.9042 3.17722 23.8781 3.18489C23.8535 3.19271 23.8345 3.21316 23.8286 3.23858L23.8154 3.29663C23.8063 3.33513 23.7994 3.3655 23.7941 3.39604C23.7127 3.88255 23.7186 4.40365 23.8124 4.98927C23.9055 5.57007 24.091 6.07102 24.3757 6.50616C23.9488 6.00327 23.5337 5.58097 23.0998 5.20673C23.0978 5.20417 23.095 5.19643 23.0948 5.19447C23.1287 4.90234 23.0567 4.62713 22.8744 4.35312C22.6351 3.99301 22.3024 3.71855 21.8858 3.53748C21.6366 3.42935 21.3783 3.33363 21.1254 3.23986C21.0043 3.19489 20.8831 3.15007 20.7584 3.10203C20.633 3.05217 20.5794 3.0433 20.5503 3.07021C20.5129 3.1051 20.5219 3.13488 20.5382 3.18903L20.5435 3.2067C20.6963 3.72163 20.8993 4.12888 21.1639 4.4517C21.6496 5.04491 22.2177 5.34629 22.8997 5.37291C22.9237 5.37434 22.9426 5.38096 22.9503 5.38697C23.0464 5.45886 23.117 5.51638 23.1795 5.57338C23.3771 5.754 23.5717 5.94642 23.7622 6.14907C23.479 5.97312 23.1328 5.89371 22.743 5.91341C22.5297 5.92416 22.318 5.95545 22.1132 5.98567L22.1054 5.98688C22.0448 5.99575 21.9846 6.00455 21.9245 6.01305C21.7929 6.03087 21.6603 6.05418 21.5431 6.07463C21.4957 6.08313 21.3824 6.10892 21.3563 6.16389C21.3472 6.18268 21.348 6.20329 21.3582 6.22201C21.3673 6.23833 21.3772 6.25367 21.388 6.26766C21.7262 6.70644 22.1119 6.9954 22.5673 7.15098C23.1225 7.34166 23.6325 7.32594 24.0907 7.10166C24.1608 7.06308 24.2453 7.04352 24.3419 7.04352C24.4147 7.04352 24.4694 7.05504 24.4876 7.05918C24.5147 7.06368 24.5515 7.07886 24.559 7.08864C24.844 7.46334 25.1145 7.86354 25.3671 8.28396C25.1537 8.07642 24.8754 7.93644 24.4963 7.8453C24.164 7.76616 23.8243 7.74912 23.4958 7.73262L23.3858 7.72704C23.2828 7.72176 23.1797 7.71522 23.0737 7.70856L22.8958 7.69758C22.8727 7.69758 22.8508 7.70868 22.8374 7.72716C22.8226 7.74714 22.8191 7.773 22.8278 7.79622C22.835 7.8156 22.848 7.84986 22.8547 7.86126C23.2011 8.44074 23.6079 8.84148 24.0982 9.08664C24.5774 9.32604 25.0105 9.3894 25.4473 9.28494C25.4978 9.27276 25.5565 9.26628 25.6169 9.26628C25.8028 9.26628 25.9324 9.32298 25.9595 9.37548C26.1999 9.8712 26.4143 10.3864 26.5993 10.9118C26.4053 10.6444 26.134 10.4272 25.7905 10.2646C25.4493 10.1036 25.094 9.95634 24.7444 9.81144C24.5942 9.74934 24.4433 9.687 24.2932 9.62322C24.2708 9.61344 24.2444 9.61548 24.2236 9.62922C24.2032 9.64284 24.191 9.66558 24.191 9.69C24.191 9.73692 24.6895 11.1206 25.4135 11.6658C25.7089 11.8883 26.0727 12.1171 26.5315 12.1278C26.6688 12.1306 26.8108 12.15 26.918 12.2719C26.9344 12.2913 26.9561 12.3064 26.9798 12.3145C27.0164 12.3265 27.0265 12.3489 27.0445 12.4253C27.1931 13.0491 27.3013 13.6921 27.368 14.345C27.3478 14.2788 27.3244 14.2118 27.2976 14.1441C27.1355 13.7332 26.8628 13.3736 26.4393 13.0124C26.221 12.8255 25.9924 12.6445 25.7713 12.4694L25.7608 12.4611C25.6601 12.3813 25.5596 12.3018 25.4595 12.2213C25.4388 12.2047 25.4187 12.1876 25.3953 12.1676L25.3328 12.1141C25.3109 12.0956 25.2784 12.0917 25.2528 12.1045C25.2266 12.1178 25.2109 12.1453 25.2128 12.1747C25.216 12.2189 25.2184 12.2606 25.2208 12.3007L25.222 12.3194C25.2269 12.4019 25.2316 12.4798 25.24 12.5566C25.3183 13.3048 25.5408 13.9295 25.9202 14.4664C26.155 14.7982 26.4919 15.2038 27.0172 15.3956C27.145 15.4426 27.2377 15.5136 27.337 15.6412C27.4307 15.7606 27.4482 15.8697 27.4461 16.007C27.4372 16.5821 27.3962 17.1527 27.3239 17.7115C27.307 17.556 27.2712 17.3959 27.2162 17.2296C27.1024 16.8852 26.9251 16.5503 26.6741 16.2059C26.4574 15.9077 26.2318 15.6085 26.0138 15.3188L25.9993 15.2995C25.9128 15.1849 25.8264 15.07 25.7422 14.9577C25.7264 14.9346 25.7036 14.9264 25.6905 14.9218C25.6718 14.9126 25.6496 14.9117 25.6298 14.9202C25.6104 14.9285 25.5955 14.9448 25.589 14.9648L25.5865 14.9726C25.5828 14.9831 25.58 14.9924 25.5785 15.0018C25.4281 15.8986 25.5203 16.702 25.8604 17.4583C26.0266 17.8281 26.2493 18.2468 26.6422 18.548C26.8215 18.6856 26.9631 18.8785 27.0409 19.0912C27.0573 19.1371 27.0567 19.1569 27.0548 19.1645C26.8886 19.8532 26.6714 20.5174 26.4074 21.146C26.4754 20.8147 26.4707 20.4667 26.3931 20.1062C26.2829 19.5952 26.0936 19.0999 25.9247 18.6758L25.8742 18.5488C25.795 18.35 25.7152 18.1498 25.6329 17.9421C25.6225 17.9156 25.5973 17.8975 25.5637 17.8958C25.5372 17.8958 25.5128 17.9109 25.5002 17.9354L25.4737 17.9854C25.462 18.0073 25.4511 18.0276 25.4417 18.0487C25.102 18.8152 24.9873 19.601 25.1009 20.3842C25.1821 20.9443 25.3197 21.3453 25.5471 21.6846C25.6648 21.8599 25.7766 22.0553 25.7969 22.2955C25.8017 22.3524 25.7995 22.3916 25.7741 22.4362C25.4873 22.9384 25.1658 23.4123 24.8137 23.8526C24.815 23.8502 24.8163 23.8478 24.8176 23.8454C25.071 23.3825 25.0786 22.8819 25.0528 22.4532C25.0304 22.0858 24.9883 21.7188 24.9478 21.364L24.9455 21.3435C24.9292 21.2014 24.9129 21.0593 24.8981 20.917C24.8895 20.8363 24.88 20.7556 24.8701 20.6737L24.8571 20.5629C24.8543 20.5384 24.8393 20.5172 24.8178 20.5065C24.7778 20.4856 24.713 20.5178 24.6431 20.6006C24.1625 21.169 23.8643 21.8113 23.7566 22.5098C23.645 23.234 23.7055 23.8537 23.9419 24.4045C23.9482 24.4191 23.9481 24.449 23.948 24.4591L23.9353 24.7759C23.9334 24.7987 23.9214 24.8244 23.9114 24.8339C23.4316 25.2961 22.9033 25.6979 22.3363 26.0323C22.6046 25.7897 22.7976 25.4732 22.9226 25.0721C23.0612 24.6275 23.1324 24.1649 23.2013 23.7163L23.2073 23.6764C23.2318 23.5187 23.2573 23.3614 23.2833 23.2007L23.3127 23.0189C23.3169 22.9924 23.3065 22.966 23.2859 22.9501C23.2655 22.9339 23.2361 22.93 23.2126 22.94L23.1869 22.9507C23.1596 22.9618 23.1358 22.9718 23.1133 22.9834C22.0414 23.5187 21.3359 24.7672 21.4356 25.952C21.4513 26.1376 21.4342 26.3119 21.3836 26.4845C21.3788 26.5002 21.3637 26.5173 21.3575 26.5201C20.8484 26.7348 20.3644 26.8915 19.8773 26.999C19.8523 27.0047 19.8325 27.0227 19.8243 27.0468C19.8161 27.0711 19.8211 27.0975 19.8378 27.1174C19.8907 27.1801 19.9368 27.2475 19.9747 27.3181C19.9903 27.347 20.0273 27.3618 20.0551 27.3546C20.4519 27.2641 20.8383 27.1468 21.204 27.0059C21.2335 26.994 21.2561 26.9884 21.2773 26.9918C21.3586 27.0026 21.4445 27.0194 21.5399 27.043C21.5597 27.0479 21.5763 27.0561 21.5763 27.0561C21.7847 27.4717 22.1429 27.7363 22.6718 27.8651C22.7869 27.8927 22.9055 27.9131 23.0245 27.9256C23.149 27.9388 23.2879 27.9455 23.4371 27.9455C23.6439 27.9455 23.7914 27.9327 23.7932 27.9325C24.2516 27.8812 24.643 27.7781 24.9898 27.6171C25.132 27.5512 25.2941 27.4623 25.4188 27.3037C25.4426 27.2734 25.4386 27.2295 25.4096 27.2041C25.0574 26.8933 24.6988 26.6674 24.3131 26.5138C23.7418 26.2867 23.2213 26.2252 22.7111 26.3233C22.6348 26.3381 22.5604 26.3567 22.488 26.3782C22.9653 26.0929 23.4223 25.7576 23.8538 25.3756C23.8621 25.3681 23.8757 25.3615 23.8863 25.3596C23.9569 25.3478 24.0506 25.3334 24.1466 25.3265C24.1555 25.3265 24.1667 25.3308 24.1681 25.3312C24.428 25.6222 24.7631 25.7637 25.1922 25.7637C25.214 25.7637 25.236 25.7632 25.2579 25.7624C25.7245 25.7474 26.1935 25.6192 26.6523 25.3813C26.9857 25.2073 27.3333 25.0048 27.6151 24.7028C27.6776 24.6357 27.7334 24.5597 27.7826 24.4927L27.7874 24.4862C27.8093 24.4567 27.8313 24.4268 27.8539 24.3974C27.8663 24.3816 27.8714 24.3611 27.8682 24.3406C27.8648 24.3207 27.8533 24.303 27.8336 24.2902C27.8287 24.2875 27.7093 24.2236 27.6004 24.1813C26.8708 23.8994 26.1343 23.8706 25.4317 24.097C25.2017 24.1709 24.9852 24.2819 24.7744 24.4353C25.1642 23.9822 25.5251 23.4854 25.8529 22.951C25.8564 22.9453 25.8657 22.93 25.8687 22.9273C25.8974 22.909 25.9267 22.8917 25.9559 22.8746C26.0084 22.8439 26.0626 22.8121 26.1136 22.7741C26.1566 22.742 26.1688 22.7412 26.2122 22.7692C26.2737 22.8091 26.3452 22.8299 26.4076 22.8462C26.7722 22.9396 27.1399 22.893 27.5465 22.7021C27.918 22.528 28.2036 22.2527 28.457 21.9812C28.8256 21.5852 29.0665 21.228 29.215 20.8568C29.2462 20.7789 29.2685 20.6984 29.2916 20.6142C29.3012 20.5788 29.311 20.5435 29.3213 20.5087C29.3327 20.4715 29.3129 20.432 29.276 20.419L29.2455 20.4166C29.0952 20.4166 27.7543 20.4386 26.97 21.1996C26.7994 21.3652 26.6465 21.5412 26.5068 21.7338C26.8171 21.0768 27.0802 20.3843 27.2923 19.6655L27.2953 19.655C27.2979 19.6462 27.3017 19.6329 27.3043 19.6292L27.5094 19.3476C27.5171 19.3363 27.518 19.3363 27.53 19.3363C27.5353 19.3363 27.5412 19.3367 27.5479 19.337L27.5917 19.3397C27.7444 19.3492 27.8342 19.3478 27.9082 19.3363C28.2002 19.2901 28.4638 19.1431 28.714 18.8865C29.2991 18.2864 29.7019 17.5378 29.9452 16.598C29.9713 16.4973 29.9786 16.3957 29.9864 16.2878C29.9899 16.2389 29.9937 16.1886 29.9992 16.1365C30.0016 16.1116 29.9918 16.0877 29.973 16.0722Z" fill="#CECECE"/>
<path d="M10.1216 26.9984C9.63496 26.8909 9.151 26.7343 8.64178 26.5196C8.63566 26.5168 8.6206 26.4997 8.61586 26.4844C8.5651 26.3113 8.54806 26.137 8.56372 25.9515C8.66344 24.7666 7.9579 23.5182 6.8863 22.9829C6.8635 22.9713 6.83974 22.9613 6.81238 22.9501L6.78694 22.9396C6.76282 22.9293 6.73342 22.9336 6.71392 22.9492C6.69286 22.9654 6.68242 22.992 6.68668 23.0185L6.71602 23.2002C6.74206 23.3609 6.76756 23.5182 6.79198 23.6757L6.79816 23.7169C6.86698 24.1644 6.93808 24.6271 7.07668 25.0717C7.20172 25.4728 7.39468 25.7893 7.66306 26.0317C7.09606 25.6974 6.56776 25.2957 6.08794 24.8336C6.07786 24.8239 6.06592 24.7982 6.06418 24.777L6.05134 24.4599C6.05122 24.4486 6.0511 24.4187 6.05746 24.4039C6.2938 23.8533 6.35434 23.2335 6.24268 22.5093C6.13498 21.8109 5.83678 21.1686 5.35621 20.6001C5.29996 20.5336 5.25033 20.4999 5.20867 20.4999C5.19852 20.4999 5.18935 20.5019 5.18213 20.5057C5.16002 20.5167 5.14506 20.538 5.14213 20.5626L5.12927 20.6731C5.11934 20.7553 5.10979 20.8359 5.10122 20.9166C5.0864 21.0589 5.07016 21.201 5.05385 21.343L5.05151 21.3636C5.01091 21.7185 4.9688 22.0854 4.94654 22.4528C4.92068 22.8814 4.92835 23.382 5.18168 23.845C5.18303 23.8474 5.18423 23.8498 5.18559 23.8522C4.83345 23.4118 4.51199 22.938 4.2252 22.4358C4.19986 22.3911 4.19768 22.3519 4.20241 22.2951C4.22279 22.0547 4.33453 21.8593 4.45221 21.6841C4.67953 21.3448 4.81713 20.9439 4.89842 20.3838C5.01204 19.6006 4.89729 18.8149 4.55756 18.0483C4.54823 18.0272 4.53733 18.0068 4.52567 17.9849L4.49913 17.9349C4.48642 17.9104 4.45928 17.8943 4.43063 17.8956C4.40206 17.8971 4.37687 17.9152 4.36649 17.9415C4.28408 18.1494 4.20437 18.3496 4.12519 18.5484L4.07458 18.6754C3.90569 19.0995 3.71628 19.5948 3.60619 20.1057C3.52859 20.4663 3.52385 20.8143 3.59191 21.1456C3.32782 20.517 3.11074 19.8528 2.94448 19.1641C2.9426 19.1565 2.942 19.1366 2.95846 19.0908C3.03622 18.878 3.17781 18.685 3.35722 18.5475C3.74996 18.2463 3.97277 17.8276 4.13887 17.4578C4.47898 16.7015 4.57124 15.898 4.42085 15.0013C4.41928 14.9919 4.41642 14.9826 4.41304 14.9725L4.41033 14.9643C4.40378 14.9443 4.3889 14.928 4.36919 14.9196C4.34995 14.9115 4.32574 14.913 4.31077 14.9203C4.29573 14.9259 4.27295 14.9342 4.25813 14.9559C4.17301 15.0696 4.08661 15.1843 4.00014 15.2991L3.98563 15.3184C3.76756 15.6079 3.54205 15.9072 3.32534 16.2054C3.07426 16.5498 2.89696 16.8847 2.78318 17.2291C2.72829 17.3954 2.69242 17.5555 2.6755 17.711C2.60324 17.1522 2.56226 16.5817 2.55331 16.0065C2.55121 15.8692 2.56865 15.76 2.66242 15.6406C2.76168 15.5132 2.85439 15.442 2.98223 15.3951C3.50746 15.2032 3.84441 14.7977 4.07924 14.4659C4.4586 13.9291 4.6811 13.3044 4.75946 12.5562C4.7678 12.4792 4.77254 12.4013 4.77743 12.3189L4.77863 12.3002C4.78096 12.2601 4.78345 12.2184 4.7866 12.1741C4.78856 12.1449 4.77284 12.1173 4.7466 12.104C4.72118 12.0912 4.68862 12.095 4.66652 12.1137L4.60418 12.1671C4.58072 12.1871 4.56064 12.2043 4.53982 12.2209C4.43973 12.3013 4.33927 12.3809 4.23858 12.4606L4.22806 12.4689C4.00706 12.644 3.77846 12.825 3.56017 13.0119C3.1366 13.3731 2.86387 13.7327 2.70182 14.1436C2.67505 14.2114 2.65159 14.2784 2.63144 14.3448C2.69806 13.6917 2.80627 13.0487 2.95486 12.4248C2.9729 12.3484 2.98298 12.3261 3.02005 12.3139C3.04336 12.306 3.06509 12.2908 3.08096 12.272C3.18871 12.1495 3.33061 12.1301 3.46806 12.1273C3.92675 12.1165 4.29054 11.8878 4.58583 11.6653C5.30989 11.12 5.80843 9.7364 5.80843 9.68948C5.80843 9.66506 5.79625 9.64226 5.77556 9.62852C5.75519 9.61508 5.72767 9.61316 5.70691 9.6224C5.55607 9.68642 5.40523 9.74876 5.24905 9.81332C4.90541 9.95582 4.55012 10.1031 4.20888 10.264C3.86546 10.4266 3.59408 10.6439 3.40009 10.9113C3.58499 10.3859 3.79937 9.8708 4.03939 9.3758C4.06699 9.3224 4.19662 9.2657 4.38251 9.2657C4.44296 9.2657 4.50154 9.27218 4.55215 9.28436C4.98888 9.389 5.42192 9.32558 5.90122 9.08606C6.39154 8.8409 6.7984 8.44016 7.1449 7.86044C7.1515 7.84928 7.16452 7.81502 7.17148 7.79588C7.1803 7.77242 7.17676 7.74656 7.16218 7.72688C7.14862 7.70828 7.12696 7.69712 7.09936 7.69712H7.09876L6.92566 7.70804C6.81958 7.7147 6.71656 7.72124 6.61354 7.72652L6.50356 7.7321C6.17506 7.74866 5.83535 7.76564 5.50298 7.84484C5.12393 7.93598 4.84563 8.0759 4.63223 8.28344C4.88481 7.86302 5.15528 7.463 5.4402 7.0883C5.44787 7.07834 5.48464 7.06316 5.51479 7.05812C5.52983 7.05458 5.58457 7.04306 5.65736 7.04306C5.75391 7.04306 5.83843 7.06274 5.91009 7.1021C6.36538 7.32476 6.8767 7.34132 7.43188 7.15064C7.88728 6.99506 8.27296 6.70604 8.611 6.26745C8.62198 6.25332 8.63194 6.2379 8.64094 6.22165C8.65126 6.20293 8.65192 6.18233 8.64292 6.16353C8.61676 6.10864 8.50348 6.08284 8.45584 6.07428C8.33884 6.05382 8.20624 6.03051 8.07478 6.01269C8.0146 6.00427 7.95424 5.99547 7.89382 5.98652L7.88608 5.98532C7.68124 5.95509 7.4695 5.92381 7.25614 5.91306C6.86632 5.89313 6.52024 5.97268 6.23698 6.14879C6.42742 5.94607 6.62206 5.75372 6.81964 5.57302C6.88216 5.51602 6.95284 5.45858 7.04914 5.38647C7.05658 5.38075 7.07554 5.37406 7.09876 5.37271C7.7815 5.34601 8.34958 5.04463 8.83534 4.45149C9.09994 4.1286 9.3028 3.72135 9.45568 3.20641L9.46096 3.18874C9.47728 3.13461 9.48628 3.10483 9.44878 3.06994C9.4198 3.04302 9.36886 3.05098 9.23632 3.10347C9.11602 3.14972 8.99494 3.19461 8.87068 3.2407C8.62096 3.33327 8.36266 3.42899 8.11336 3.53712C7.69678 3.71819 7.36414 3.99265 7.1248 4.35276C6.94252 4.62677 6.87046 4.90206 6.90442 5.19291C6.90418 5.19615 6.90088 5.2048 6.90088 5.2048C6.466 5.58024 6.05032 6.00291 5.62352 6.50594C5.90813 6.07081 6.09364 5.56979 6.18676 4.98898C6.2806 4.40344 6.28654 3.88227 6.205 3.39576C6.19984 3.3653 6.19282 3.33485 6.18388 3.29673L6.17056 3.238C6.16456 3.2128 6.1456 3.19243 6.1207 3.18461C6.0958 3.17724 6.0679 3.18378 6.04936 3.20145C6.0196 3.2295 5.9904 3.25597 5.9619 3.28168L5.94182 3.2998C5.86888 3.36553 5.80001 3.42756 5.73767 3.49772C5.13197 4.18102 4.77871 4.90274 4.65772 5.70417C4.6026 6.06638 4.62546 6.37476 4.72765 6.64664C4.76149 6.73676 4.81427 6.81722 4.86683 6.89708C4.8909 6.9335 4.91496 6.97016 4.93699 7.00772C4.95323 7.03472 4.95459 7.04174 4.95451 7.04048C4.94451 7.14758 4.93015 7.26704 4.91075 7.41032C4.90992 7.41212 4.90721 7.41638 4.89857 7.42778L4.89158 7.4375C4.56034 7.89788 4.25475 8.38328 3.97976 8.88566C4.08789 8.51042 4.17399 8.03552 4.1679 7.48364C4.16053 6.82172 4.00811 6.23136 3.70177 5.6786C3.68966 5.6571 3.6677 5.6431 3.63695 5.641C3.61462 5.641 3.59311 5.65206 3.57905 5.67093C3.56987 5.68371 3.56055 5.69574 3.55168 5.70717C3.5319 5.73274 3.5134 5.75695 3.49686 5.78282C3.25292 6.16534 3.12209 6.58712 3.03524 6.9119C2.8765 7.50746 2.80356 8.0048 2.80567 8.47712C2.80687 8.87858 2.88004 9.18722 3.03599 9.44834C3.08449 9.52964 3.14555 9.60074 3.20691 9.67238C3.23947 9.7103 3.27293 9.74936 3.30323 9.78938C3.32444 9.81716 3.33466 9.84554 3.33527 9.86132C3.33925 9.95654 3.33715 10.0533 3.33511 10.1469L3.33368 10.2115C3.33346 10.2226 3.33091 10.2354 3.32707 10.2452C3.13126 10.7196 2.95914 11.2126 2.81236 11.719C2.83394 11.5466 2.84612 11.3797 2.84921 11.2168C2.86695 10.2924 2.58339 9.46676 2.0062 8.76272L1.88588 8.61614C1.87197 8.59892 1.85137 8.58914 1.82941 8.58914L1.81738 8.59022C1.79167 8.59448 1.77001 8.6123 1.76106 8.6366C1.75008 8.66588 1.73933 8.69348 1.72888 8.72018C1.70872 8.77172 1.6897 8.82062 1.67361 8.8703C1.54976 9.25826 1.489 9.68204 1.47667 10.2442L1.47644 10.2552C1.4672 10.6642 1.45449 11.2245 1.62247 11.7606C1.78783 12.2884 2.07943 12.5551 2.13598 12.603L2.14199 12.6084C2.29592 12.7458 2.39615 12.8715 2.41691 12.9531C2.42525 12.9859 2.43376 13.019 2.44368 13.0516C2.48759 13.1968 2.46014 13.3352 2.43052 13.4846C2.41578 13.56 2.40044 13.6379 2.3951 13.7178C2.3739 14.0377 2.34788 14.363 2.32269 14.6776L2.32043 14.7067C2.31397 14.7869 2.3075 14.8671 2.30111 14.9473C2.23689 14.2276 1.99852 13.5733 1.58841 12.9947C1.33726 12.6407 1.03783 12.3378 0.698256 12.0942C0.683592 12.0837 0.668178 12.0743 0.647574 12.0621C0.637572 12.0562 0.625992 12.0493 0.611928 12.0405C0.590725 12.0279 0.563504 12.0267 0.541623 12.0374C0.519214 12.0483 0.503799 12.0705 0.501243 12.0956C0.496656 12.1411 0.491317 12.1851 0.485677 12.2308C0.474323 12.3245 0.46357 12.4129 0.463119 12.5037C0.458081 13.4454 0.65727 14.3277 1.05535 15.126C1.16627 15.3487 1.31282 15.5413 1.49111 15.6988C1.66789 15.8541 1.85866 15.9456 2.07395 15.9786C2.07868 15.9794 2.08996 15.9862 2.09169 15.9876C2.10335 16.011 2.11545 16.0344 2.12756 16.058C2.17057 16.1411 2.21501 16.227 2.23712 16.3132C2.25554 16.3861 2.25554 16.4657 2.25554 16.5501C2.25554 16.581 2.25554 16.6121 2.25652 16.6426C2.2772 17.372 2.30434 17.626 2.42105 18.2778C2.34983 18.084 2.26043 17.8897 2.14501 17.7027C1.67759 16.9462 1.08378 16.4327 0.329648 16.133C0.281674 16.1137 0.233549 16.0998 0.177754 16.0836L0.166625 16.0803C0.143992 16.0736 0.120004 16.0666 0.0943628 16.0587C0.0712028 16.0512 0.0448094 16.0563 0.0259355 16.072C0.00713677 16.0875 -0.00271378 16.1114 -0.000232347 16.1362C0.00533208 16.1879 0.00916705 16.2382 0.0127012 16.2873C0.0204463 16.395 0.0277402 16.4967 0.0538328 16.5973C0.297163 17.5371 0.699906 18.2857 1.285 18.8859C1.53517 19.1424 1.79881 19.2895 2.09094 19.3356C2.16463 19.3471 2.25472 19.3485 2.40721 19.339L2.45113 19.3364C2.45782 19.336 2.46368 19.3357 2.46902 19.3357C2.48105 19.3357 2.48203 19.3357 2.49038 19.348L2.69468 19.6285C2.69731 19.6322 2.70115 19.6455 2.70378 19.6547L2.70679 19.6648C2.91884 20.3836 3.18194 21.076 3.4922 21.7332C3.35256 21.5404 3.19954 21.3645 3.029 21.199C2.24471 20.438 0.903834 20.416 0.753522 20.416L0.734796 20.4161L0.722994 20.4183C0.686148 20.4314 0.666222 20.4708 0.677574 20.5078C0.688026 20.5428 0.6978 20.5782 0.709008 20.6197C0.73044 20.6977 0.752694 20.7782 0.7839 20.8561C0.932484 21.2274 1.17334 21.5846 1.54202 21.9805C1.79535 22.252 2.08094 22.5273 2.45233 22.7014C2.85905 22.8924 3.22631 22.939 3.59153 22.8454C3.65364 22.8291 3.72508 22.8085 3.78651 22.7686C3.83027 22.7406 3.84223 22.7415 3.88524 22.7735C3.93622 22.8114 3.99044 22.8432 4.04308 22.874C4.07218 22.8911 4.1015 22.9083 4.12887 22.9256C4.13323 22.9293 4.14256 22.9446 4.14602 22.9502C4.47371 23.4847 4.83473 23.9814 5.22454 24.4345C5.01369 24.2811 4.7972 24.1702 4.56726 24.0963C3.86456 23.8698 3.12803 23.8986 2.39856 24.1807C2.28968 24.2229 2.17034 24.2868 2.16238 24.2913C2.14568 24.3023 2.13418 24.32 2.13057 24.3404C2.12741 24.3604 2.1326 24.3808 2.14478 24.3965C2.16757 24.4261 2.1896 24.4559 2.2114 24.4855L2.21621 24.4919C2.26547 24.559 2.32126 24.6349 2.38382 24.7021C2.66558 25.0042 3.01306 25.2067 3.34662 25.3805C3.80531 25.6185 4.27438 25.7467 4.74088 25.7617C4.76284 25.7625 4.7848 25.7629 4.80668 25.7629C5.23582 25.7629 5.57081 25.6215 5.82903 25.3322C5.83219 25.33 5.84339 25.3257 5.84956 25.3256C5.94821 25.3327 6.04198 25.347 6.11206 25.3587C6.1231 25.3606 6.13672 25.3672 6.14524 25.3749C6.57664 25.7569 7.03348 26.0921 7.51078 26.3773C7.43842 26.3559 7.3639 26.3373 7.28764 26.3223C6.77764 26.2243 6.25714 26.2858 5.68556 26.5129C5.29996 26.6665 4.94135 26.8924 4.58921 27.2032C4.56019 27.2286 4.55613 27.2725 4.58004 27.3028C4.70464 27.4614 4.86676 27.5503 5.00896 27.6161C5.35576 27.7773 5.74722 27.8805 6.20614 27.9317C6.20752 27.9318 6.35494 27.9446 6.56176 27.9446C6.71098 27.9446 6.84988 27.9379 6.97432 27.9247C7.0933 27.9123 7.21192 27.8919 7.32706 27.8642C7.85584 27.7354 8.21416 27.4708 8.41942 27.0598C8.42308 27.0563 8.43892 27.0471 8.4589 27.0423C8.5543 27.0186 8.64022 27.0019 8.72188 26.991C8.74108 26.9878 8.76508 26.9931 8.79532 27.0052C9.16048 27.1459 9.54688 27.2632 9.94312 27.3535C9.94864 27.3549 9.95446 27.3556 9.96022 27.3556C9.98686 27.3556 10.0114 27.3409 10.0243 27.317C10.0622 27.2466 10.1082 27.1791 10.1612 27.1163C10.1778 27.0965 10.1828 27.0702 10.1746 27.0459C10.1668 27.0222 10.1469 27.0043 10.1216 26.9984Z" fill="#CECECE"/>
<path d="M11.4 20.3V18.6233L15.4636 15.172C16.1319 14.5852 16.5955 14.18 16.5955 13.5791C16.5955 12.8945 16.0909 12.4055 15.3819 12.4055C14.5773 12.4055 13.9773 13.0482 13.95 14.1241H11.4409C11.3455 11.7907 13.0364 10.1 15.4364 10.1C17.6046 10.1 19.1864 11.4413 19.2 13.3137C19.2 14.5433 18.4227 15.4515 17.3455 16.3318L15.2591 18.0364V18.1762H18.9409V20.3H11.4Z" fill="#CECECE"/>
</g>
</g>
<defs>
<clipPath id="clip0_0_274">
<rect width="30" height="30" fill="white" transform="translate(0 0.5)"/>
</clipPath>
</defs>
</svg>
