<svg width="67" height="28" viewBox="0 0 67 28" fill="none" xmlns="http://www.w3.org/2000/svg">
<g clip-path="url(#clip0_0_477)">
<path d="M14.8288 10.5905C15.3512 12.0148 15.2977 13.2897 14.6505 14.421C14.0561 15.4824 13.076 16.2193 11.7101 16.6321C11.095 16.8163 10.3622 17.0005 9.53121 17.1848L8.42932 17.4133L7.32916 17.6381H7.31846L3.98235 18.329L0.5 4.25238L5.05397 3.15977C6.04658 2.94849 7.05233 2.80933 8.06379 2.74338C9.21922 2.66416 10.1678 2.74338 10.9025 2.95527C12.8317 3.50311 13.2317 4.93163 12.1024 7.2409C11.9675 7.51782 11.8042 7.77908 11.6156 8.02029C13.218 8.24133 14.2891 9.09813 14.8288 10.5905ZM6.56244 8.74069C7.00512 8.64509 7.40711 8.40709 7.71073 8.06077C7.82841 7.93025 7.91789 7.77534 7.97322 7.60636C8.02857 7.43737 8.04848 7.25817 8.03169 7.08058C8.01125 6.90981 7.94732 6.74771 7.84646 6.61079C7.7456 6.47389 7.61139 6.36705 7.45754 6.30122C7.06527 6.11697 6.55531 6.08381 5.90984 6.22936L6.56244 8.74069ZM9.8237 14.0028C9.9946 13.8481 10.1345 13.6604 10.2355 13.4501C10.3302 13.2377 10.3398 12.9953 10.2623 12.7757C10.084 12.3041 9.64713 12.0074 8.98209 11.8932C8.69798 11.8461 8.40952 11.8337 8.12263 11.8563C7.88726 11.8563 7.63585 11.8858 7.36304 11.9208L8.04239 14.5445C8.04239 14.5703 8.19751 14.5666 8.5131 14.5187C8.62367 14.4985 8.73602 14.4874 8.84651 14.4671C8.95708 14.4469 9.01415 14.4321 9.03908 14.4248C9.28887 14.3692 9.52344 14.2565 9.72563 14.0949L9.8237 14.0028Z" fill="#CB7529"/>
<path d="M16.5264 15.77L14.9215 2.18534L20.187 1.68787L21.2568 15.2504L16.5264 15.77Z" fill="#CB7529"/>
<path d="M35.2322 14.9242L22.8684 15.1286V14.0416L27.5044 6.61269L22.3691 7.07147L22.4209 2.71582L34.9129 0V1.08706L31.008 9.80016L35.1412 9.53304L35.2322 14.9242Z" fill="#CB7529"/>
<path d="M48.9478 15.8658L36.6444 14.6903V13.6032L42.0774 6.81735L36.9763 6.63309V1.43359L50.087 1.00061V2.08768L45.2834 10.3051L49.4201 10.5023L48.9478 15.8658Z" fill="#CB7529"/>
<path d="M56.6811 17.4834C55.6608 17.3125 54.6844 16.9303 53.8104 16.3595C52.9971 15.8332 52.297 15.1403 51.7527 14.3235C51.2013 13.4944 50.8292 12.5523 50.6619 11.5613C50.4945 10.5703 50.5357 9.55354 50.7829 8.5805C51.0309 7.5483 51.4852 6.58114 52.1165 5.7412C53.0674 4.45462 54.3381 3.45886 55.7939 2.86018C57.2493 2.2615 58.8347 2.08234 60.3811 2.34182C61.4022 2.51242 62.3792 2.89472 63.2537 3.46573C64.0721 3.98842 64.7755 4.68263 65.3184 5.50353C65.8572 6.31345 66.2221 7.23319 66.3882 8.2009C66.5673 9.20962 66.5308 10.2466 66.2812 11.2391C66.0308 12.2697 65.5794 13.2364 64.9548 14.0803C64.3329 14.9256 63.5688 15.6484 62.6991 16.2139C60.9203 17.4074 58.7702 17.8609 56.6811 17.4834ZM55.5152 9.45194C55.4139 9.83738 55.3952 10.2411 55.4607 10.6347C55.5258 11.0283 55.6736 11.4025 55.8931 11.7311C56.1198 12.0677 56.4108 12.3528 56.7482 12.5689C57.0854 12.785 57.462 12.9275 57.8545 12.9877C58.6867 13.1394 59.5434 12.9582 60.251 12.481C60.6031 12.2667 60.9104 11.9823 61.1556 11.6441C61.4004 11.306 61.5776 10.921 61.6774 10.5114C61.7799 10.1247 61.7977 9.7193 61.7291 9.32466C61.6606 8.93002 61.5077 8.5561 61.2814 8.23042C61.0597 7.88894 60.7702 7.60024 60.432 7.38357C60.0937 7.16687 59.7147 7.0272 59.3201 6.97383C58.4881 6.82384 57.632 7.00488 56.9239 7.48053C56.2205 7.91944 55.714 8.62826 55.5152 9.45194Z" fill="#CB7529"/>
<g opacity="0.6">
<path style="mix-blend-mode:multiply" opacity="0.6" d="M14.8288 10.5905C15.3512 12.0148 15.2977 13.2897 14.6505 14.421C14.0561 15.4824 13.076 16.2193 11.7101 16.6321C11.095 16.8163 10.3622 17.0005 9.53121 17.1848L8.42932 17.4133L7.32916 17.6381H7.31846L3.98235 18.329L0.5 4.25238L5.05397 3.15977C6.04658 2.94849 7.05233 2.80933 8.06379 2.74338C9.21922 2.66416 10.1678 2.74338 10.9025 2.95527C12.8317 3.50311 13.2317 4.93163 12.1024 7.2409C11.9675 7.51782 11.8042 7.77908 11.6156 8.02029C13.218 8.24133 14.2891 9.09813 14.8288 10.5905ZM6.56244 8.74069C7.00512 8.64509 7.40711 8.40709 7.71073 8.06077C7.82841 7.93025 7.91789 7.77534 7.97322 7.60636C8.02857 7.43737 8.04848 7.25817 8.03169 7.08058C8.01125 6.90981 7.94732 6.74771 7.84646 6.61079C7.7456 6.47389 7.61139 6.36705 7.45754 6.30122C7.06527 6.11697 6.55531 6.08381 5.90984 6.22936L6.56244 8.74069ZM9.8237 14.0028C9.9946 13.8481 10.1345 13.6604 10.2355 13.4501C10.3302 13.2377 10.3398 12.9953 10.2623 12.7757C10.084 12.3041 9.64713 12.0074 8.98209 11.8932C8.69798 11.8461 8.40952 11.8337 8.12263 11.8563C7.88726 11.8563 7.63585 11.8858 7.36304 11.9208L8.04239 14.5445C8.04239 14.5703 8.19751 14.5666 8.5131 14.5187C8.62367 14.4985 8.73602 14.4874 8.84651 14.4671C8.95708 14.4469 9.01415 14.4321 9.03908 14.4248C9.28887 14.3692 9.52344 14.2565 9.72563 14.0949L9.8237 14.0028Z" fill="url(#paint0_linear_0_477)"/>
<g style="mix-blend-mode:multiply" opacity="0.6">
<path style="mix-blend-mode:multiply" opacity="0.6" d="M16.5264 15.77L14.9215 2.18534L20.187 1.68787L21.2568 15.2504L16.5264 15.77Z" fill="url(#paint1_linear_0_477)"/>
<path style="mix-blend-mode:multiply" opacity="0.6" d="M16.5264 15.77L14.9215 2.18534L20.187 1.68787L21.2568 15.2504L16.5264 15.77Z" fill="url(#paint2_linear_0_477)"/>
</g>
<g style="mix-blend-mode:multiply" opacity="0.6">
<path style="mix-blend-mode:multiply" opacity="0.6" d="M35.2328 14.9242L22.8689 15.1286V14.0416L27.5049 6.61269L22.3696 7.07147L23.1132 3.40308L22.3322 1.1276L34.9136 0V1.08706L31.0085 9.80016L35.1417 9.53304L35.2328 14.9242Z" fill="url(#paint3_linear_0_477)"/>
<path style="mix-blend-mode:multiply" opacity="0.6" d="M35.2328 14.9242L22.8689 15.1286V14.0416L27.5049 6.61269L22.3696 7.07147L23.1132 3.40308L22.3322 1.1276L34.9136 0V1.08706L31.0085 9.80016L35.1417 9.53304L35.2328 14.9242Z" fill="url(#paint4_linear_0_477)"/>
</g>
<g style="mix-blend-mode:multiply" opacity="0.6">
<path style="mix-blend-mode:multiply" opacity="0.6" d="M48.9478 15.8654L36.6444 14.6899V13.6029L42.0774 6.81698L36.9763 6.63272V1.43324L50.087 1.00024V2.08732L45.2834 10.3048L49.4201 10.502L48.9478 15.8654Z" fill="url(#paint5_linear_0_477)"/>
<path style="mix-blend-mode:multiply" opacity="0.6" d="M48.9478 15.8654L36.6444 14.6899V13.6029L42.0774 6.81698L36.9763 6.63272V1.43324L50.087 1.00024V2.08732L45.2834 10.3048L49.4201 10.502L48.9478 15.8654Z" fill="url(#paint6_linear_0_477)"/>
</g>
<g style="mix-blend-mode:multiply" opacity="0.6">
<path style="mix-blend-mode:multiply" opacity="0.6" d="M56.6811 17.4834C55.6608 17.3125 54.6844 16.9303 53.8104 16.3595C52.9971 15.8332 52.297 15.1403 51.7527 14.3235C51.2013 13.4944 50.8292 12.5523 50.6619 11.5613C50.4945 10.5703 50.5357 9.55354 50.7829 8.5805C51.0309 7.5483 51.4852 6.58114 52.1165 5.7412C53.0674 4.45462 54.3381 3.45886 55.7939 2.86018C57.2493 2.2615 58.8347 2.08234 60.3811 2.34182C61.4022 2.51242 62.3792 2.89472 63.2537 3.46573C64.0721 3.98842 64.7755 4.68263 65.3184 5.50353C65.8572 6.31345 66.2221 7.23319 66.3882 8.2009C66.5673 9.20962 66.5308 10.2466 66.2812 11.2391C66.0308 12.2697 65.5794 13.2364 64.9548 14.0803C64.3329 14.9256 63.5688 15.6484 62.6991 16.2139C60.9203 17.4074 58.7702 17.8609 56.6811 17.4834ZM55.5152 9.45194C55.4139 9.83738 55.3952 10.2411 55.4607 10.6347C55.5258 11.0283 55.6736 11.4025 55.8931 11.7311C56.1198 12.0677 56.4108 12.3528 56.7482 12.5689C57.0854 12.785 57.462 12.9275 57.8545 12.9877C58.6867 13.1394 59.5434 12.9582 60.251 12.481C60.6031 12.2667 60.9104 11.9823 61.1556 11.6441C61.4004 11.306 61.5776 10.921 61.6774 10.5114C61.7799 10.1247 61.7977 9.7193 61.7291 9.32466C61.6606 8.93002 61.5077 8.5561 61.2814 8.23042C61.0597 7.88894 60.7702 7.60024 60.432 7.38357C60.0937 7.16687 59.7147 7.0272 59.3201 6.97383C58.4881 6.82384 57.632 7.00488 56.9239 7.48053C56.2205 7.91944 55.714 8.62826 55.5152 9.45194Z" fill="url(#paint7_linear_0_477)"/>
<path style="mix-blend-mode:multiply" opacity="0.6" d="M56.6811 17.4834C55.6608 17.3125 54.6844 16.9303 53.8104 16.3595C52.9971 15.8332 52.297 15.1403 51.7527 14.3235C51.2013 13.4944 50.8292 12.5523 50.6619 11.5613C50.4945 10.5703 50.5357 9.55354 50.7829 8.5805C51.0309 7.5483 51.4852 6.58114 52.1165 5.7412C53.0674 4.45462 54.3381 3.45886 55.7939 2.86018C57.2493 2.2615 58.8347 2.08234 60.3811 2.34182C61.4022 2.51242 62.3792 2.89472 63.2537 3.46573C64.0721 3.98842 64.7755 4.68263 65.3184 5.50353C65.8572 6.31345 66.2221 7.23319 66.3882 8.2009C66.5673 9.20962 66.5308 10.2466 66.2812 11.2391C66.0308 12.2697 65.5794 13.2364 64.9548 14.0803C64.3329 14.9256 63.5688 15.6484 62.6991 16.2139C60.9203 17.4074 58.7702 17.8609 56.6811 17.4834ZM55.5152 9.45194C55.4139 9.83738 55.3952 10.2411 55.4607 10.6347C55.5258 11.0283 55.6736 11.4025 55.8931 11.7311C56.1198 12.0677 56.4108 12.3528 56.7482 12.5689C57.0854 12.785 57.462 12.9275 57.8545 12.9877C58.6867 13.1394 59.5434 12.9582 60.251 12.481C60.6031 12.2667 60.9104 11.9823 61.1556 11.6441C61.4004 11.306 61.5776 10.921 61.6774 10.5114C61.7799 10.1247 61.7977 9.7193 61.7291 9.32466C61.6606 8.93002 61.5077 8.5561 61.2814 8.23042C61.0597 7.88894 60.7702 7.60024 60.432 7.38357C60.0937 7.16687 59.7147 7.0272 59.3201 6.97383C58.4881 6.82384 57.632 7.00488 56.9239 7.48053C56.2205 7.91944 55.714 8.62826 55.5152 9.45194Z" fill="url(#paint8_linear_0_477)"/>
</g>
</g>
<path d="M19.9607 26.6275C19.1405 27.2768 18.1102 27.5756 17.0829 27.4622C16.5652 27.4074 16.0626 27.2497 15.6029 26.9978C15.1669 26.7572 14.7781 26.4347 14.4564 26.0471C14.137 25.6663 13.8945 25.2234 13.7431 24.7445C13.5884 24.256 13.5373 23.7388 13.5933 23.2281C13.647 22.7189 13.803 22.2268 14.0516 21.7836C14.297 21.3498 14.6223 20.9697 15.0091 20.6652C15.8181 20.014 16.8442 19.721 17.862 19.8508C18.7458 19.9378 19.575 20.3321 20.2139 20.9692L19.235 22.5169C18.9637 22.2967 18.637 22.1618 18.2935 22.1282C17.8516 22.0676 17.4042 22.1865 17.0453 22.4597C16.873 22.5796 16.7282 22.7369 16.6208 22.9206C16.5135 23.1044 16.4462 23.3101 16.4238 23.5235C16.4013 23.7369 16.4243 23.9527 16.491 24.156C16.5577 24.3593 16.6666 24.5449 16.81 24.7002C17.0995 25.0241 17.4885 25.2346 17.911 25.2957C18.3336 25.3568 18.7636 25.2649 19.128 25.0356L19.9607 26.6275Z" fill="white"/>
<path d="M22.537 27.8382L20.0139 26.9721L23.721 19.4456L27.9378 26.6312L26.0354 27.9044L25.4273 26.7012L22.9667 26.6404L22.537 27.8382ZM24.5714 25.0172L23.9778 23.8472L23.5748 24.973L24.5714 25.0172Z" fill="white"/>
<path d="M31.6859 20.0056L31.1225 21.6988C30.5357 21.4906 30.1506 21.5145 29.9758 21.7836C29.7405 22.1226 29.942 22.5205 30.5698 22.9812C30.8468 23.1833 31.1356 23.368 31.4344 23.5339L31.5414 23.5965L31.6358 23.6481C31.7162 23.6924 31.7766 23.7292 31.8141 23.7513C31.9371 23.825 32.0281 23.884 32.0835 23.9227C32.4691 24.1886 32.7474 24.5909 32.8662 25.054C32.9777 25.5025 32.9357 25.9771 32.7467 26.3971C32.5748 26.8235 32.2975 27.1958 31.9427 27.4769C31.5092 27.7832 31.003 27.9613 30.4788 27.9927C30.0817 28.0177 29.6833 27.9778 29.2982 27.8749C28.8892 27.7766 28.4876 27.6479 28.0966 27.4897L29.0166 25.8094C29.2548 25.996 29.5468 26.0946 29.8456 26.0894C30.0899 26.0673 30.1881 25.9162 30.1363 25.6417C30.0963 25.4559 30.0008 25.2877 29.8634 25.1609C29.6729 24.9913 29.4613 24.8488 29.2341 24.737L29.0379 24.6339L28.8418 24.5289C28.6832 24.4441 28.5458 24.3685 28.4389 24.3022C27.7685 23.8969 27.3565 23.381 27.2067 22.7656C27.0773 22.2436 27.1409 21.6904 27.385 21.2142C27.6229 20.7434 28.0045 20.3671 28.471 20.1437C29.1153 19.8272 29.8302 19.6949 30.541 19.7605C30.9314 19.7905 31.3163 19.8728 31.6859 20.0056Z" fill="white"/>
<path d="M33.2872 27.4364L33.2105 20.0333L35.8226 20.0849L35.6443 27.4438L33.2872 27.4364Z" fill="white"/>
<path d="M36.4519 27.6869L36.4053 20.7132L40.6383 23.2411L40.4406 20.1825L43.2773 20.024L43.5163 27.604L39.089 25.4944L39.171 27.6779L36.4519 27.6869Z" fill="white"/>
<path d="M47.2696 27.6928C46.7539 27.655 46.2507 27.5108 45.7897 27.269C45.3636 27.0425 44.9863 26.7291 44.6808 26.3477C44.3718 25.9595 44.1474 25.5071 44.0229 25.0214C43.8983 24.5355 43.8762 24.0277 43.9585 23.5324C44.0399 23.0071 44.2265 22.5051 44.5059 22.0584C44.9262 21.3765 45.5177 20.8252 46.2173 20.4634C46.917 20.1017 47.6986 19.9429 48.4787 20.004C48.9939 20.0442 49.4961 20.1914 49.9552 20.437C50.3837 20.6613 50.7623 20.975 51.0676 21.3582C51.3683 21.7364 51.5884 22.1759 51.7132 22.648C51.8439 23.1438 51.8689 23.6631 51.7861 24.1698C51.7042 24.6944 51.5192 25.1961 51.2424 25.6438C50.9667 26.091 50.616 26.4834 50.2064 26.8028C49.3708 27.4705 48.3222 27.7884 47.2696 27.6928ZM46.3587 23.7461C46.3238 23.9423 46.3313 24.144 46.3803 24.3369C46.4292 24.5298 46.5186 24.7093 46.6422 24.8626C46.7686 25.0213 46.9253 25.1511 47.1028 25.244C47.28 25.337 47.4741 25.3909 47.6726 25.4025C48.0928 25.4404 48.5114 25.3127 48.8441 25.045C49.0107 24.923 49.152 24.768 49.2595 24.589C49.3673 24.4098 49.4394 24.2104 49.4718 24.0022C49.507 23.805 49.4987 23.602 49.4479 23.4084C49.3968 23.2149 49.3044 23.0356 49.1776 22.8838C49.0535 22.7239 48.8978 22.593 48.7212 22.5C48.5444 22.407 48.3504 22.3538 48.1524 22.344C47.7316 22.3074 47.3133 22.435 46.9791 22.7014C46.6472 22.9515 46.4242 23.327 46.3587 23.7461Z" fill="white"/>
<path d="M14.8288 9.50357C15.3512 10.9278 15.2977 12.2028 14.6505 13.3341C14.0561 14.3954 13.076 15.1324 11.7101 15.5451C11.095 15.7293 10.3622 15.9136 9.53121 16.0978L8.42932 16.3263L7.32737 16.5474H7.31668L3.98235 17.242L0.5 3.16726L5.05397 2.07283C6.04693 1.86396 7.05255 1.72545 8.06379 1.65827C9.21922 1.57904 10.1678 1.65827 10.9025 1.872C12.8317 2.41738 13.2317 3.8459 12.1024 6.15762C11.967 6.43369 11.8038 6.69428 11.6156 6.93517C13.218 7.15502 14.2891 8.01117 14.8288 9.50357ZM6.56244 7.65556C7.00533 7.55951 7.40737 7.32086 7.71073 6.97385C7.82841 6.84331 7.91789 6.68841 7.97322 6.51942C8.02857 6.3504 8.04848 6.1712 8.03169 5.99365C8.01106 5.82293 7.94708 5.66091 7.84625 5.52402C7.74541 5.38712 7.61128 5.28025 7.45754 5.21426C7.06527 5.03001 6.55531 4.99869 5.90984 5.14242L6.56244 7.65556ZM9.8237 12.9103C9.99453 12.7556 10.1344 12.5678 10.2355 12.3576C10.3302 12.1452 10.3398 11.9028 10.2623 11.6832C10.084 11.2134 9.64713 10.9149 8.98209 10.8007C8.6979 10.7545 8.40952 10.7422 8.12263 10.7638C7.88726 10.7638 7.63585 10.7933 7.36304 10.8301C7.81059 12.586 8.04239 13.4502 8.04239 13.4502C8.04239 13.4502 8.19751 13.4723 8.5131 13.4244C8.62367 13.4041 8.73602 13.3931 8.84651 13.3728C8.91151 13.3627 8.9758 13.3485 9.03908 13.3304C9.28879 13.2754 9.52336 13.1634 9.72563 13.0024L9.8237 12.9103Z" fill="#FFCE07"/>
<path d="M16.5478 14.8969L14.9288 1.10582L20.1389 0.617554L21.2301 14.3901L16.5478 14.8969Z" fill="#FFCE07"/>
<path d="M35.2324 13.8334L22.8686 14.0379L27.5046 5.52378L22.3694 5.9807L21.8148 0.821752L34.9133 0L31.0084 8.71312L35.1416 8.44592L35.2324 13.8334Z" fill="#FFCE07"/>
<path d="M48.9478 14.7805L36.6444 13.6032L42.1309 5.65655L36.9763 5.53862V0.33728L50.087 0.99136L45.2834 9.21254L49.4201 9.40782L48.9478 14.7805Z" fill="#FFCE07"/>
<path d="M56.6811 16.398C55.6624 16.2252 54.6876 15.843 53.8141 15.2741C53.0011 14.7467 52.3009 14.0532 51.7564 13.2364C51.2042 12.4076 50.8316 11.4656 50.6634 10.4745C50.4955 9.48339 50.5362 8.46659 50.7829 7.49328C51.0309 6.46109 51.4852 5.49394 52.1165 4.65398C52.7344 3.80915 53.4964 3.08798 54.365 2.52593C56.1425 1.3309 58.2922 0.876601 60.3811 1.25461C61.402 1.42579 62.379 1.80806 63.2537 2.37853C64.0696 2.90418 64.7706 3.60014 65.3111 4.42183C65.8501 5.23178 66.215 6.15153 66.381 7.11926C66.5614 8.13019 66.5255 9.16979 66.2759 10.1648C66.0254 11.1948 65.5741 12.161 64.9492 13.0042C64.3275 13.8446 63.5656 14.5634 62.6991 15.1267C60.9203 16.32 58.7705 16.774 56.6811 16.398ZM55.515 8.36475C55.4138 8.75051 55.3955 9.15443 55.4607 9.54835C55.5258 9.94227 55.6736 10.3168 55.8931 10.6458C56.1198 10.9824 56.4108 11.2675 56.7482 11.4836C57.0854 11.6996 57.462 11.8422 57.8545 11.9024C58.6867 12.0525 59.5434 11.8708 60.251 11.3938C60.6033 11.1797 60.9107 10.8952 61.1556 10.5572C61.4007 10.219 61.5779 9.83387 61.6774 9.42419C61.7799 9.03747 61.7975 8.63211 61.7291 8.23747C61.6604 7.84284 61.5077 7.46901 61.2814 7.14319C61.0597 6.80173 60.7702 6.51302 60.432 6.29636C60.0937 6.07966 59.7147 5.93998 59.3201 5.88662C58.4881 5.7385 57.6326 5.91937 56.9236 6.39331C56.2205 6.83223 55.714 7.54104 55.515 8.36475Z" fill="#FFCE07"/>
<g style="mix-blend-mode:multiply">
<path style="mix-blend-mode:multiply" d="M14.8288 9.50395C15.3512 10.9282 15.2977 12.2032 14.6505 13.3345C14.0561 14.3957 13.076 15.1327 11.7101 15.5455C11.095 15.7297 10.3622 15.9139 9.53121 16.0982L8.42932 16.3267L7.32737 16.5478H7.31668L3.98235 17.2424L0.5 3.16763L5.05397 2.07319C6.04693 1.86433 7.05255 1.72582 8.06379 1.65863C9.21922 1.57941 10.1678 1.65863 10.9025 1.87236C12.8317 2.41775 13.2317 3.84627 12.1024 6.15799C11.967 6.43406 11.8038 6.69465 11.6156 6.93554C13.218 7.15539 14.2891 8.01155 14.8288 9.50395ZM6.56244 7.65593C7.00533 7.55988 7.40737 7.32122 7.71073 6.97421C7.82841 6.84368 7.91789 6.68878 7.97322 6.51979C8.02857 6.35077 8.04848 6.17157 8.03169 5.99402C8.01106 5.8233 7.94708 5.66128 7.84625 5.52439C7.74541 5.38749 7.61128 5.28062 7.45754 5.21463C7.06527 5.03038 6.55531 4.99906 5.90984 5.14279L6.56244 7.65593ZM9.8237 12.9107C9.99453 12.7559 10.1344 12.5682 10.2355 12.3579C10.3302 12.1456 10.3398 11.9032 10.2623 11.6836C10.084 11.2138 9.64713 10.9153 8.98209 10.8011C8.6979 10.7549 8.40952 10.7426 8.12263 10.7642C7.88726 10.7642 7.63585 10.7937 7.36304 10.8305C7.81059 12.5864 8.04239 13.4506 8.04239 13.4506C8.04239 13.4506 8.19751 13.4727 8.5131 13.4247C8.62367 13.4045 8.73602 13.3935 8.84651 13.3731C8.91151 13.3631 8.9758 13.3489 9.03908 13.3308C9.28879 13.2758 9.52336 13.1637 9.72563 13.0028L9.8237 12.9107Z" fill="url(#paint9_linear_0_477)"/>
<g style="mix-blend-mode:multiply">
<path style="mix-blend-mode:multiply" d="M16.5478 14.8969L14.9288 1.10582L20.1389 0.617554L21.2301 14.3901L16.5478 14.8969Z" fill="url(#paint10_linear_0_477)"/>
<path style="mix-blend-mode:multiply" d="M16.5478 14.8969L14.9288 1.10582L20.1389 0.617554L21.2301 14.3901L16.5478 14.8969Z" fill="url(#paint11_linear_0_477)"/>
</g>
<g style="mix-blend-mode:multiply">
<path style="mix-blend-mode:multiply" d="M35.2324 13.8334L22.8686 14.0379L27.5046 5.52378L22.3694 5.9807L21.8148 0.821752L34.9133 0L31.0084 8.71312L35.1416 8.44592L35.2324 13.8334Z" fill="url(#paint12_linear_0_477)"/>
<path style="mix-blend-mode:multiply" d="M35.2324 13.8334L22.8686 14.0379L27.5046 5.52378L22.3694 5.9807L21.8148 0.821752L34.9133 0L31.0084 8.71312L35.1416 8.44592L35.2324 13.8334Z" fill="url(#paint13_linear_0_477)"/>
</g>
<g style="mix-blend-mode:multiply">
<path style="mix-blend-mode:multiply" d="M48.9478 14.7805L36.6444 13.6032L42.1309 5.65655L36.9763 5.53862V0.33728L50.087 0.99136L45.2834 9.21254L49.4201 9.40782L48.9478 14.7805Z" fill="url(#paint14_linear_0_477)"/>
<path style="mix-blend-mode:multiply" d="M48.9478 14.7805L36.6444 13.6032L42.1309 5.65655L36.9763 5.53862V0.33728L50.087 0.99136L45.2834 9.21254L49.4201 9.40782L48.9478 14.7805Z" fill="url(#paint15_linear_0_477)"/>
</g>
<g style="mix-blend-mode:multiply">
<path style="mix-blend-mode:multiply" d="M56.6811 16.398C55.6624 16.2252 54.6876 15.843 53.8141 15.2741C53.0011 14.7467 52.3009 14.0532 51.7564 13.2364C51.2042 12.4076 50.8316 11.4656 50.6634 10.4745C50.4955 9.48339 50.5362 8.46659 50.7829 7.49328C51.0309 6.46109 51.4852 5.49394 52.1165 4.65398C52.7344 3.80915 53.4964 3.08798 54.365 2.52593C56.1425 1.3309 58.2922 0.876601 60.3811 1.25461C61.402 1.42579 62.379 1.80806 63.2537 2.37853C64.0696 2.90418 64.7706 3.60014 65.3111 4.42183C65.8501 5.23178 66.215 6.15153 66.381 7.11926C66.5614 8.13019 66.5255 9.16979 66.2759 10.1648C66.0254 11.1948 65.5741 12.161 64.9492 13.0042C64.3275 13.8446 63.5656 14.5634 62.6991 15.1267C60.9203 16.32 58.7705 16.774 56.6811 16.398ZM55.515 8.36475C55.4138 8.75051 55.3955 9.15443 55.4607 9.54835C55.5258 9.94227 55.6736 10.3168 55.8931 10.6458C56.1198 10.9824 56.4108 11.2675 56.7482 11.4836C57.0854 11.6996 57.462 11.8422 57.8545 11.9024C58.6867 12.0525 59.5434 11.8708 60.251 11.3938C60.6033 11.1797 60.9107 10.8952 61.1556 10.5572C61.4007 10.219 61.5779 9.83387 61.6774 9.42419C61.7799 9.03747 61.7975 8.63211 61.7291 8.23747C61.6604 7.84284 61.5077 7.46901 61.2814 7.14319C61.0597 6.80173 60.7702 6.51302 60.432 6.29636C60.0937 6.07966 59.7147 5.93998 59.3201 5.88662C58.4881 5.7385 57.6326 5.91937 56.9236 6.39331C56.2205 6.83223 55.714 7.54104 55.515 8.36475Z" fill="url(#paint16_linear_0_477)"/>
<path style="mix-blend-mode:multiply" d="M56.6811 16.398C55.6624 16.2252 54.6876 15.843 53.8141 15.2741C53.0011 14.7467 52.3009 14.0532 51.7564 13.2364C51.2042 12.4076 50.8316 11.4656 50.6634 10.4745C50.4955 9.48339 50.5362 8.46659 50.7829 7.49328C51.0309 6.46109 51.4852 5.49394 52.1165 4.65398C52.7344 3.80915 53.4964 3.08798 54.365 2.52593C56.1425 1.3309 58.2922 0.876601 60.3811 1.25461C61.402 1.42579 62.379 1.80806 63.2537 2.37853C64.0696 2.90418 64.7706 3.60014 65.3111 4.42183C65.8501 5.23178 66.215 6.15153 66.381 7.11926C66.5614 8.13019 66.5255 9.16979 66.2759 10.1648C66.0254 11.1948 65.5741 12.161 64.9492 13.0042C64.3275 13.8446 63.5656 14.5634 62.6991 15.1267C60.9203 16.32 58.7705 16.774 56.6811 16.398ZM55.515 8.36475C55.4138 8.75051 55.3955 9.15443 55.4607 9.54835C55.5258 9.94227 55.6736 10.3168 55.8931 10.6458C56.1198 10.9824 56.4108 11.2675 56.7482 11.4836C57.0854 11.6996 57.462 11.8422 57.8545 11.9024C58.6867 12.0525 59.5434 11.8708 60.251 11.3938C60.6033 11.1797 60.9107 10.8952 61.1556 10.5572C61.4007 10.219 61.5779 9.83387 61.6774 9.42419C61.7799 9.03747 61.7975 8.63211 61.7291 8.23747C61.6604 7.84284 61.5077 7.46901 61.2814 7.14319C61.0597 6.80173 60.7702 6.51302 60.432 6.29636C60.0937 6.07966 59.7147 5.93998 59.3201 5.88662C58.4881 5.7385 57.6326 5.91937 56.9236 6.39331C56.2205 6.83223 55.714 7.54104 55.515 8.36475Z" fill="url(#paint17_linear_0_477)"/>
</g>
</g>
<path d="M55.7466 21.2236L56.3778 22.5447C56.382 22.5532 56.3882 22.5607 56.3954 22.5664C56.4029 22.5721 56.4116 22.576 56.4206 22.5779L57.8312 22.7897C57.8413 22.7914 57.8511 22.7959 57.8591 22.8029C57.867 22.8099 57.8732 22.8191 57.8764 22.8294C57.8799 22.8396 57.8804 22.8507 57.878 22.8612C57.8756 22.8718 57.8705 22.8815 57.8631 22.8892L56.8449 23.9173C56.8384 23.9239 56.8337 23.9321 56.8308 23.9411C56.8281 23.9501 56.8273 23.9596 56.8289 23.9689L57.0698 25.4207C57.0719 25.4316 57.0708 25.4428 57.0671 25.4531C57.0631 25.4634 57.0564 25.4723 57.0476 25.4787C57.0392 25.4851 57.0288 25.4888 57.0181 25.4893C57.0075 25.4899 56.9968 25.4871 56.9875 25.4816L55.7272 24.7962C55.7189 24.7916 55.7095 24.7893 55.7002 24.7893C55.6909 24.7893 55.6816 24.7916 55.6737 24.7962L54.4111 25.4816C54.4018 25.4871 54.3912 25.4899 54.3805 25.4893C54.3699 25.4888 54.3597 25.4851 54.3509 25.4787C54.3422 25.4723 54.3356 25.4634 54.3318 25.4531C54.3278 25.4428 54.327 25.4316 54.3291 25.4207L54.5716 23.9689C54.5726 23.9595 54.5716 23.9499 54.5687 23.9409C54.5655 23.9319 54.5604 23.9239 54.5538 23.9173L53.5337 22.8892C53.5257 22.8819 53.5201 22.8723 53.5172 22.8617C53.5143 22.8511 53.5145 22.8399 53.5177 22.8293C53.5209 22.8187 53.527 22.8095 53.5353 22.8024C53.5436 22.7954 53.5537 22.791 53.564 22.7897L54.9764 22.5779C54.9854 22.576 54.9939 22.5721 55.0014 22.5664C55.0089 22.5607 55.015 22.5532 55.0193 22.5447L55.6502 21.2236C55.655 21.2148 55.6622 21.2075 55.6707 21.2023C55.6789 21.1972 55.6888 21.1946 55.6984 21.1946C55.7082 21.1946 55.7178 21.1972 55.7263 21.2023C55.7349 21.2075 55.7418 21.2148 55.7466 21.2236Z" fill="white"/>
<path d="M9.1175 21.2231L9.7487 22.5441C9.75289 22.5527 9.75895 22.5601 9.76632 22.5659C9.77378 22.5717 9.78232 22.5756 9.79148 22.5773L11.1983 22.7892C11.2085 22.7911 11.2181 22.7959 11.2259 22.803C11.2336 22.8101 11.2394 22.8193 11.2425 22.8295C11.2457 22.8397 11.246 22.8507 11.2436 22.8611C11.2411 22.8716 11.2359 22.8811 11.2286 22.8887L10.2069 23.9169C10.2008 23.9237 10.1962 23.9319 10.1934 23.9408C10.1907 23.9497 10.1897 23.9591 10.1909 23.9684L10.437 25.4258C10.4388 25.4364 10.4377 25.4473 10.4339 25.4573C10.4301 25.4672 10.4236 25.4759 10.4152 25.4822C10.4069 25.4885 10.397 25.4924 10.3866 25.4931C10.3762 25.4939 10.3659 25.4917 10.3567 25.4866L9.09429 24.8012C9.08606 24.7967 9.07689 24.7944 9.06758 24.7944C9.05818 24.7944 9.04902 24.7967 9.04079 24.8012L7.77836 25.4866C7.76921 25.4917 7.75883 25.4939 7.74848 25.4931C7.73813 25.4924 7.7282 25.4885 7.71982 25.4822C7.71143 25.4759 7.70496 25.4672 7.70114 25.4573C7.6973 25.4473 7.69626 25.4364 7.69812 25.4258L7.93884 23.974C7.94036 23.9646 7.93969 23.9551 7.9369 23.9461C7.9341 23.9372 7.92929 23.929 7.92279 23.9224L6.9011 22.8942C6.89378 22.8865 6.88864 22.8768 6.8863 22.8662C6.88393 22.8557 6.88447 22.8447 6.88777 22.8344C6.89109 22.8241 6.89708 22.8149 6.90509 22.808C6.9131 22.8009 6.92284 22.7964 6.93319 22.7948L8.34538 22.5773C8.35454 22.5756 8.36308 22.5717 8.37054 22.5659C8.37792 22.5601 8.38397 22.5527 8.38817 22.5441L9.01944 21.2231C9.02409 21.2138 9.03108 21.2061 9.0397 21.2006C9.0484 21.1952 9.05834 21.1924 9.06843 21.1924C9.07852 21.1924 9.08846 21.1952 9.09708 21.2006C9.10578 21.2061 9.11277 21.2138 9.1175 21.2231Z" fill="white"/>
</g>
<defs>
<linearGradient id="paint0_linear_0_477" x1="-1.79303" y1="5.09071" x2="17.7827" y2="15.9636" gradientUnits="userSpaceOnUse">
<stop stop-color="white"/>
<stop offset="1"/>
</linearGradient>
<linearGradient id="paint1_linear_0_477" x1="527.568" y1="668.9" x2="752.471" y2="668.9" gradientUnits="userSpaceOnUse">
<stop stop-color="white"/>
<stop offset="1"/>
</linearGradient>
<linearGradient id="paint2_linear_0_477" x1="13.9322" y1="3.83184" x2="24.2554" y2="6.57531" gradientUnits="userSpaceOnUse">
<stop stop-color="white"/>
<stop offset="1"/>
</linearGradient>
<linearGradient id="paint3_linear_0_477" x1="1601.87" y1="620.88" x2="2535.23" y2="620.88" gradientUnits="userSpaceOnUse">
<stop stop-color="white"/>
<stop offset="1"/>
</linearGradient>
<linearGradient id="paint4_linear_0_477" x1="20.3175" y1="2.3033" x2="38.2686" y2="11.3458" gradientUnits="userSpaceOnUse">
<stop stop-color="white"/>
<stop offset="1"/>
</linearGradient>
<linearGradient id="paint5_linear_0_477" x1="2760.92" y1="681.082" x2="3774.34" y2="681.082" gradientUnits="userSpaceOnUse">
<stop stop-color="white"/>
<stop offset="1"/>
</linearGradient>
<linearGradient id="paint6_linear_0_477" x1="34.5451" y1="3.26344" x2="52.7902" y2="13.0099" gradientUnits="userSpaceOnUse">
<stop stop-color="white"/>
<stop offset="1"/>
</linearGradient>
<linearGradient id="paint7_linear_0_477" x1="4525.12" y1="830.04" x2="5950.39" y2="830.04" gradientUnits="userSpaceOnUse">
<stop stop-color="white"/>
<stop offset="1"/>
</linearGradient>
<linearGradient id="paint8_linear_0_477" x1="48.0716" y1="4.56882" x2="68.3028" y2="16.9489" gradientUnits="userSpaceOnUse">
<stop stop-color="white"/>
<stop offset="1"/>
</linearGradient>
<linearGradient id="paint9_linear_0_477" x1="7.51638" y1="2.92628" x2="8.41656" y2="13.9028" gradientUnits="userSpaceOnUse">
<stop stop-color="white"/>
<stop offset="1" stop-color="#FFCE07"/>
</linearGradient>
<linearGradient id="paint10_linear_0_477" x1="620.868" y1="162.973" x2="770.058" y2="992.547" gradientUnits="userSpaceOnUse">
<stop stop-color="white"/>
<stop offset="1" stop-color="#FFCE07"/>
</linearGradient>
<linearGradient id="paint11_linear_0_477" x1="17.94" y1="1.80436" x2="19.6537" y2="11.6108" gradientUnits="userSpaceOnUse">
<stop stop-color="white"/>
<stop offset="1" stop-color="#FFCE07"/>
</linearGradient>
<linearGradient id="paint12_linear_0_477" x1="2123.29" y1="92.2288" x2="2192.71" y2="928.396" gradientUnits="userSpaceOnUse">
<stop stop-color="white"/>
<stop offset="1" stop-color="#FFCE07"/>
</linearGradient>
<linearGradient id="paint13_linear_0_477" x1="28.2268" y1="1.16674" x2="29.023" y2="11.0375" gradientUnits="userSpaceOnUse">
<stop stop-color="white"/>
<stop offset="1" stop-color="#FFCE07"/>
</linearGradient>
<linearGradient id="paint14_linear_0_477" x1="3225.48" y1="2.79265" x2="3298.81" y2="862.776" gradientUnits="userSpaceOnUse">
<stop stop-color="white"/>
<stop offset="1" stop-color="#FFCE07"/>
</linearGradient>
<linearGradient id="paint15_linear_0_477" x1="43.0682" y1="1.53771" x2="43.9093" y2="11.69" gradientUnits="userSpaceOnUse">
<stop stop-color="white"/>
<stop offset="1" stop-color="#FFCE07"/>
</linearGradient>
<linearGradient id="paint16_linear_0_477" x1="5166.7" y1="-98.8353" x2="5237.18" y2="819.504" gradientUnits="userSpaceOnUse">
<stop stop-color="white"/>
<stop offset="1" stop-color="#FFCE07"/>
</linearGradient>
<linearGradient id="paint17_linear_0_477" x1="58.1755" y1="2.40488" x2="58.9836" y2="13.2452" gradientUnits="userSpaceOnUse">
<stop stop-color="white"/>
<stop offset="1" stop-color="#FFCE07"/>
</linearGradient>
<clipPath id="clip0_0_477">
<rect width="66" height="28" fill="white" transform="translate(0.5)"/>
</clipPath>
</defs>
</svg>
