<svg width="394" height="115" viewBox="0 0 394 115" fill="none" xmlns="http://www.w3.org/2000/svg">
<path d="M119.884 24.41H130.864V29H114.004V8H130.474V12.59H119.884V16.13H129.214V20.57H119.884V24.41ZM153.184 29H146.344L141.994 22.49L137.704 29H130.924L138.574 18.38L131.254 8H137.944L142.144 14.06L146.284 8H152.704L145.384 18.14L153.184 29ZM164.012 29.42C157.352 29.42 152.462 24.89 152.462 18.5C152.462 12.11 157.352 7.58 164.012 7.58C167.882 7.58 171.002 8.99 173.042 11.54L169.262 14.96C167.942 13.37 166.322 12.5 164.312 12.5C160.862 12.5 158.462 14.9 158.462 18.5C158.462 22.1 160.862 24.5 164.312 24.5C166.322 24.5 167.942 23.63 169.262 22.04L173.042 25.46C171.002 28.01 167.882 29.42 164.012 29.42ZM174.79 29V8H180.73V24.29H190.75V29H174.79ZM201.686 29.42C195.476 29.42 191.816 25.91 191.816 19.64V8H197.756V19.46C197.756 23.06 199.256 24.5 201.746 24.5C204.206 24.5 205.706 23.06 205.706 19.46V8H211.556V19.64C211.556 25.91 207.896 29.42 201.686 29.42ZM222.059 29.42C218.609 29.42 215.189 28.49 213.209 27.11L215.159 22.73C217.019 23.96 219.659 24.8 222.089 24.8C224.549 24.8 225.509 24.11 225.509 23.09C225.509 19.76 213.569 22.19 213.569 14.39C213.569 10.64 216.629 7.58 222.869 7.58C225.599 7.58 228.419 8.21 230.489 9.41L228.659 13.82C226.649 12.74 224.669 12.2 222.839 12.2C220.349 12.2 219.449 13.04 219.449 14.09C219.449 17.3 231.359 14.9 231.359 22.64C231.359 26.3 228.299 29.42 222.059 29.42ZM233.203 29V8H239.143V29H233.203ZM257.831 8H263.711L254.711 29H248.861L239.891 8H246.311L252.011 21.68L257.831 8ZM269.92 24.41H280.9V29H264.04V8H280.51V12.59H269.92V16.13H279.25V20.57H269.92V24.41Z" fill="white"/>
<path d="M67.8332 40V75H56.0332V48.9H50.0332V40H67.8332ZM87.9816 75.8C84.8816 75.8 82.1316 75.0833 79.7316 73.65C77.365 72.1833 75.4983 70.0833 74.1316 67.35C72.7983 64.5833 72.1316 61.3 72.1316 57.5C72.1316 53.7 72.7983 50.4333 74.1316 47.7C75.4983 44.9333 77.365 42.8333 79.7316 41.4C82.1316 39.9333 84.8816 39.2 87.9816 39.2C91.0816 39.2 93.815 39.9333 96.1816 41.4C98.5816 42.8333 100.448 44.9333 101.782 47.7C103.148 50.4333 103.832 53.7 103.832 57.5C103.832 61.3 103.148 64.5833 101.782 67.35C100.448 70.0833 98.5816 72.1833 96.1816 73.65C93.815 75.0833 91.0816 75.8 87.9816 75.8ZM87.9816 66.35C90.6483 66.35 91.9816 63.4 91.9816 57.5C91.9816 51.6 90.6483 48.65 87.9816 48.65C85.315 48.65 83.9816 51.6 83.9816 57.5C83.9816 63.4 85.315 66.35 87.9816 66.35ZM122.601 75.8C119.501 75.8 116.751 75.0833 114.351 73.65C111.984 72.1833 110.117 70.0833 108.751 67.35C107.417 64.5833 106.751 61.3 106.751 57.5C106.751 53.7 107.417 50.4333 108.751 47.7C110.117 44.9333 111.984 42.8333 114.351 41.4C116.751 39.9333 119.501 39.2 122.601 39.2C125.701 39.2 128.434 39.9333 130.801 41.4C133.201 42.8333 135.067 44.9333 136.401 47.7C137.767 50.4333 138.451 53.7 138.451 57.5C138.451 61.3 137.767 64.5833 136.401 67.35C135.067 70.0833 133.201 72.1833 130.801 73.65C128.434 75.0833 125.701 75.8 122.601 75.8ZM122.601 66.35C125.267 66.35 126.601 63.4 126.601 57.5C126.601 51.6 125.267 48.65 122.601 48.65C119.934 48.65 118.601 51.6 118.601 57.5C118.601 63.4 119.934 66.35 122.601 66.35ZM157.22 75.8C154.12 75.8 151.37 75.0833 148.97 73.65C146.603 72.1833 144.737 70.0833 143.37 67.35C142.037 64.5833 141.37 61.3 141.37 57.5C141.37 53.7 142.037 50.4333 143.37 47.7C144.737 44.9333 146.603 42.8333 148.97 41.4C151.37 39.9333 154.12 39.2 157.22 39.2C160.32 39.2 163.053 39.9333 165.42 41.4C167.82 42.8333 169.687 44.9333 171.02 47.7C172.387 50.4333 173.07 53.7 173.07 57.5C173.07 61.3 172.387 64.5833 171.02 67.35C169.687 70.0833 167.82 72.1833 165.42 73.65C163.053 75.0833 160.32 75.8 157.22 75.8ZM157.22 66.35C159.887 66.35 161.22 63.4 161.22 57.5C161.22 51.6 159.887 48.65 157.22 48.65C154.553 48.65 153.22 51.6 153.22 57.5C153.22 63.4 154.553 66.35 157.22 66.35ZM191.839 75.8C188.739 75.8 185.989 75.0833 183.589 73.65C181.222 72.1833 179.356 70.0833 177.989 67.35C176.656 64.5833 175.989 61.3 175.989 57.5C175.989 53.7 176.656 50.4333 177.989 47.7C179.356 44.9333 181.222 42.8333 183.589 41.4C185.989 39.9333 188.739 39.2 191.839 39.2C194.939 39.2 197.672 39.9333 200.039 41.4C202.439 42.8333 204.306 44.9333 205.639 47.7C207.006 50.4333 207.689 53.7 207.689 57.5C207.689 61.3 207.006 64.5833 205.639 67.35C204.306 70.0833 202.439 72.1833 200.039 73.65C197.672 75.0833 194.939 75.8 191.839 75.8ZM191.839 66.35C194.506 66.35 195.839 63.4 195.839 57.5C195.839 51.6 194.506 48.65 191.839 48.65C189.172 48.65 187.839 51.6 187.839 57.5C187.839 63.4 189.172 66.35 191.839 66.35ZM250.848 68.9H237.548L235.198 75H223.198L238.498 40H250.098L265.398 75H253.198L250.848 68.9ZM247.598 60.4L244.198 51.6L240.798 60.4H247.598ZM283.299 75.8C277.933 75.8 273.749 74.35 270.749 71.45C267.749 68.55 266.249 64.4833 266.249 59.25V40H278.049V58.9C278.049 61.4667 278.499 63.3333 279.399 64.5C280.333 65.6667 281.666 66.25 283.399 66.25C285.133 66.25 286.449 65.6667 287.349 64.5C288.283 63.3333 288.749 61.4667 288.749 58.9V40H300.349V59.25C300.349 64.4833 298.849 68.55 295.849 71.45C292.849 74.35 288.666 75.8 283.299 75.8ZM305.758 40H323.008C326.908 40 330.342 40.7167 333.308 42.15C336.308 43.55 338.625 45.5667 340.258 48.2C341.925 50.8333 342.758 53.9333 342.758 57.5C342.758 61.0667 341.925 64.1667 340.258 66.8C338.625 69.4333 336.308 71.4667 333.308 72.9C330.342 74.3 326.908 75 323.008 75H305.758V40ZM322.508 65.8C325.042 65.8 327.058 65.0833 328.558 63.65C330.092 62.1833 330.858 60.1333 330.858 57.5C330.858 54.8667 330.092 52.8333 328.558 51.4C327.058 49.9333 325.042 49.2 322.508 49.2H317.558V65.8H322.508Z" fill="white"/>
<path d="M92.7909 107V90.71H86.3409V86H105.151V90.71H98.7309V107H92.7909ZM116.761 107.42C110.041 107.42 105.091 102.8 105.091 96.5C105.091 90.2 110.041 85.58 116.761 85.58C123.481 85.58 128.431 90.2 128.431 96.5C128.431 102.8 123.481 107.42 116.761 107.42ZM116.761 102.5C119.941 102.5 122.431 100.13 122.431 96.5C122.431 92.87 119.941 90.5 116.761 90.5C113.581 90.5 111.091 92.87 111.091 96.5C111.091 100.13 113.581 102.5 116.761 102.5ZM140.332 107.42C134.122 107.42 130.462 103.91 130.462 97.64V86H136.402V97.46C136.402 101.06 137.902 102.5 140.392 102.5C142.852 102.5 144.352 101.06 144.352 97.46V86H150.202V97.64C150.202 103.91 146.542 107.42 140.332 107.42ZM166.316 107L162.506 101.42H159.266V107H153.326V86H162.926C168.656 86 172.256 88.97 172.256 93.77C172.256 96.86 170.756 99.14 168.146 100.4L172.676 107H166.316ZM166.256 93.77C166.256 91.82 165.026 90.68 162.566 90.68H159.266V96.83H162.566C165.026 96.83 166.256 95.69 166.256 93.77ZM188.793 86H194.613V107H189.723L180.453 95.81V107H174.633V86H179.523L188.793 97.19V86ZM213.623 107L211.973 102.92H203.093L201.443 107H195.383L204.653 86H210.503L219.803 107H213.623ZM204.833 98.54H210.233L207.533 91.82L204.833 98.54ZM245.007 107H239.547L239.487 95.87L234.087 104.93H231.447L226.077 96.17V107H220.587V86H225.477L232.857 98.12L240.057 86H244.947L245.007 107ZM254.19 102.41H265.17V107H248.31V86H264.78V90.59H254.19V94.13H263.52V98.57H254.19V102.41ZM281.726 86H287.546V107H282.656L273.386 95.81V107H267.566V86H272.456L281.726 97.19V86ZM295.306 107V90.71H288.856V86H307.666V90.71H301.246V107H295.306Z" fill="white"/>
</svg>
