<svg width="264" height="31" viewBox="0 0 264 31" fill="none" xmlns="http://www.w3.org/2000/svg">
<g clip-path="url(#clip0_0_224)">
<path d="M59.376 1.75826C59.3381 1.39908 59.06 1.13303 58.7188 1.13303H50.7691C50.4279 1.13303 50.1498 1.41238 50.1119 1.75826L47.7864 29.122C47.7485 29.5211 48.0518 29.8803 48.4436 29.8803H52.2478C52.5891 29.8803 52.8798 29.6009 52.905 29.2284L53.1452 25.5303C53.1578 25.3573 53.2842 25.2243 53.4485 25.2243H56.0268C56.1911 25.2243 56.3175 25.3573 56.3301 25.5303L56.5702 29.2284C56.5955 29.5876 56.8862 29.8803 57.2274 29.8803H61.0443C61.4361 29.8803 61.7394 29.5344 61.7015 29.122L59.376 1.75826ZM53.8529 20.6349C53.676 20.6349 53.537 20.4752 53.5496 20.289L54.4975 6.85321C54.5101 6.74679 54.586 6.68027 54.6744 6.68027H54.8008C54.9019 6.68027 54.9778 6.76009 54.9778 6.85321L55.9257 20.289C55.9383 20.4752 55.7993 20.6349 55.6223 20.6349H53.8529Z" fill="#0041FF"/>
<path d="M111.548 1.75826C111.523 1.39908 111.232 1.13303 110.891 1.13303H102.941C102.6 1.13303 102.322 1.41238 102.284 1.75826L99.9712 29.122C99.9333 29.5211 100.237 29.8803 100.628 29.8803H104.433C104.774 29.8803 105.065 29.6009 105.09 29.2284L105.33 25.5303C105.343 25.3573 105.469 25.2243 105.633 25.2243H108.212C108.376 25.2243 108.502 25.3573 108.515 25.5303L108.755 29.2284C108.78 29.5876 109.071 29.8803 109.412 29.8803H113.216C113.608 29.8803 113.912 29.5344 113.874 29.122L111.548 1.75826ZM106.025 20.6349C105.848 20.6349 105.709 20.4752 105.722 20.289L106.67 6.85321C106.682 6.74679 106.758 6.68027 106.847 6.68027H106.973C107.074 6.68027 107.15 6.76009 107.15 6.85321L108.098 20.289C108.11 20.4752 107.971 20.6349 107.795 20.6349H106.025Z" fill="#0041FF"/>
<path d="M23.0906 18.0142V23.9606C23.0906 24.1335 23.2296 24.2798 23.394 24.2798H27.7163C28.0829 24.2798 28.3736 24.5858 28.3736 24.9716V29.1752C28.3736 29.561 28.0829 29.867 27.7163 29.867H18.5913C18.2248 29.867 17.9341 29.561 17.9341 29.1752V1.82477C17.9341 1.43899 18.2248 1.13303 18.5913 1.13303H27.7163C28.0829 1.13303 28.3736 1.43899 28.3736 1.82477V6.00183C28.3736 6.38761 28.0829 6.69358 27.7163 6.69358H23.394C23.2296 6.69358 23.0906 6.83991 23.0906 7.01284V12.7463C23.0906 12.9193 23.2296 13.0656 23.394 13.0656H26.8443C27.2108 13.0656 27.5015 13.3716 27.5015 13.7573V17.0032C27.5015 17.389 27.2108 17.695 26.8443 17.695H23.394C23.2296 17.695 23.0906 17.8413 23.0906 18.0142Z" fill="#0041FF"/>
<path d="M76.7794 1.13303H65.4931C65.1266 1.13303 64.8359 1.43899 64.8359 1.82477V6.00183C64.8359 6.38761 65.1266 6.69358 65.4931 6.69358H68.261C68.4253 6.69358 68.5643 6.83991 68.5643 7.01284V29.1885C68.5643 29.5743 68.855 29.8803 69.2215 29.8803H73.051C73.4175 29.8803 73.7082 29.5743 73.7082 29.1885V6.99954C73.7082 6.8266 73.8472 6.68027 74.0115 6.68027H76.7794C77.1459 6.68027 77.4366 6.37431 77.4366 5.98853V1.82477C77.4366 1.43899 77.1459 1.13303 76.7794 1.13303Z" fill="#0041FF"/>
<path d="M43.0975 24.2798H39.1922C39.0279 24.2798 38.8889 24.1335 38.8889 23.9606V1.82477C38.8889 1.43899 38.5982 1.13303 38.2317 1.13303H34.4022C34.0357 1.13303 33.745 1.43899 33.745 1.82477V29.1885C33.745 29.5743 34.0357 29.8803 34.4022 29.8803H43.0975C43.4641 29.8803 43.7548 29.5743 43.7548 29.1885V24.9849C43.7548 24.5991 43.4641 24.2798 43.0975 24.2798Z" fill="#0041FF"/>
<path d="M92.4764 16.2982V16.1252C92.4764 16.0454 92.527 15.9789 92.5901 15.9523C93.9678 15.3936 94.9409 13.9835 94.9409 12.3472V6.36101C94.9536 3.47431 92.7292 1.13303 89.9866 1.13303H83.0354C82.6689 1.13303 82.3782 1.43899 82.3782 1.82477V29.1885C82.3782 29.5743 82.6689 29.8803 83.0354 29.8803H86.8649C87.2314 29.8803 87.5221 29.5743 87.5221 29.1885V19.2248C87.5221 19.0518 87.6611 18.9055 87.8254 18.9055H88.7227C89.3294 18.9055 89.8223 19.4243 89.8223 20.0628V29.2018C89.8223 29.5876 90.113 29.8936 90.4795 29.8936H94.309C94.6755 29.8936 94.9662 29.5876 94.9662 29.2018V20.1028C94.9662 18.4532 93.993 17.0564 92.6154 16.4977C92.527 16.4445 92.4764 16.378 92.4764 16.2982ZM89.8097 13.1055C89.8097 13.744 89.3168 14.2628 88.7101 14.2628H87.8128C87.6485 14.2628 87.5094 14.1165 87.5094 13.9436V6.99954C87.5094 6.8266 87.6485 6.68027 87.8128 6.68027H88.7101C89.3168 6.68027 89.8097 7.19908 89.8097 7.83761V13.1055Z" fill="#0041FF"/>
<path d="M12.7144 6.36101C12.7144 3.47431 10.49 1.13303 7.73477 1.13303H0.783549C0.41703 1.13303 0.126343 1.43899 0.126343 1.82477V29.1885C0.126343 29.5743 0.41703 29.8803 0.783549 29.8803H9.22612C11.1472 29.8803 12.7017 28.244 12.7017 26.222V19.2647C12.7017 17.6151 11.7286 16.2183 10.351 15.6596C10.2751 15.633 10.2372 15.5665 10.2372 15.4867V15.3138C10.2372 15.2339 10.2878 15.1674 10.351 15.1408C11.7286 14.5821 12.7017 13.172 12.7017 11.5358L12.7144 6.36101ZM7.57047 23.1358C7.57047 23.7743 7.07756 24.2931 6.47091 24.2931H5.57357C5.40927 24.2931 5.27025 24.1468 5.27025 23.9739V18.0275C5.27025 17.8546 5.40927 17.7083 5.57357 17.7083H6.47091C7.07756 17.7083 7.57047 18.2271 7.57047 18.8656V23.1358ZM7.57047 11.9083C7.57047 12.5468 7.07756 13.0656 6.47091 13.0656H5.57357C5.40927 13.0656 5.27025 12.9193 5.27025 12.7463V6.99954C5.27025 6.8266 5.40927 6.68027 5.57357 6.68027H6.47091C7.07756 6.68027 7.57047 7.19908 7.57047 7.83761V11.9083Z" fill="#0041FF"/>
</g>
<path d="M158.285 15.3636L163 21H158.333L156.008 18.0303L153.667 21H149L153.715 15.3636L149.161 10H153.828L156.008 12.7273L158.172 10H162.839L158.285 15.3636Z" fill="white"/>
<g clip-path="url(#clip1_0_224)">
<mask id="mask0_0_224" style="mask-type:luminance" maskUnits="userSpaceOnUse" x="198" y="0" width="66" height="31">
<path d="M264 0H198V31H264V0Z" fill="white"/>
</mask>
<g mask="url(#mask0_0_224)">
<path d="M237.633 18.6549C237.633 17.6143 238.465 16.7708 239.491 16.7708H241.349V25.3105C241.349 26.6988 240.24 27.8241 238.87 27.8241H237.633V18.6549Z" fill="white"/>
<path d="M205.239 16.7708C206.478 16.7708 207.554 16.9876 208.467 17.4213C209.38 17.8414 210.084 18.4512 210.58 19.2508C211.075 20.0368 211.323 20.9651 211.323 22.0357C211.323 23.1062 211.075 24.0346 210.58 24.8207C210.084 25.6066 209.38 26.2165 208.467 26.6502C207.554 27.0703 206.478 27.2803 205.239 27.2803H202.853V28.4868C202.853 29.875 201.743 31.0003 200.374 31.0003H198.98V16.7708H205.239ZM205.005 24.1092C205.8 24.1092 206.4 23.933 206.804 23.5807C207.209 23.2147 207.411 22.6998 207.411 22.0357C207.411 21.3717 207.209 20.8567 206.804 20.4908C206.4 20.1249 205.8 19.9419 205.005 19.9419H202.853V24.1092H205.005Z" fill="white"/>
<path d="M255.974 14.0465C255.661 14.2499 255.276 14.4057 254.82 14.5141C254.376 14.6225 253.9 14.6767 253.392 14.6767C252.009 14.6767 250.947 14.3243 250.203 13.6196C249.46 12.9149 249.088 11.8647 249.088 10.4689V6.76918H247.543V3.30328H249.088V2.51351C249.088 1.12534 250.198 0 251.567 0H252.785L252.805 3.30328H254.737C256.625 3.30328 258.156 4.85502 258.156 6.76918H252.805V10.4282C252.805 10.8212 252.903 11.1329 253.099 11.3633C253.307 11.5801 253.581 11.6885 253.92 11.6885C254.575 11.6885 255.366 11.8072 255.62 12.4195C255.64 12.4702 255.66 12.5198 255.677 12.5676C255.873 13.1224 255.974 14.0465 255.974 14.0465Z" fill="white"/>
<path d="M203.786 14.7987C202.677 14.7987 201.601 14.6564 200.558 14.3718C199.515 14.0872 198.667 13.7078 198.015 13.2335L198.345 12.4643C198.834 11.3215 200.246 10.9086 201.419 11.282C202.227 11.5395 203.023 11.6682 203.805 11.6682C205.292 11.6682 206.035 11.282 206.035 10.5095C206.035 10.103 205.82 9.80479 205.39 9.61512C204.972 9.41174 204.294 9.20174 203.355 8.98488C202.325 8.75454 201.464 8.51058 200.773 8.25314C200.082 7.98207 199.489 7.5552 198.993 6.97246C198.498 6.38973 198.25 5.60372 198.25 4.61443C198.25 3.7471 198.478 2.96787 198.935 2.27672C199.391 1.57202 200.069 1.0164 200.969 0.609837C201.882 0.203279 202.997 0 204.314 0C205.213 0 206.1 0.108415 206.974 0.325247C207.848 0.528525 208.617 0.833446 209.282 1.24L209.139 1.59848C208.581 2.99653 206.941 3.51488 205.478 3.24203C205.08 3.16767 204.685 3.13049 204.294 3.13049C203.525 3.13049 202.964 3.25246 202.612 3.49639C202.26 3.72678 202.084 4.03169 202.084 4.41115C202.084 4.7906 202.292 5.07519 202.71 5.26492C203.127 5.45464 203.799 5.65115 204.724 5.85442C205.768 6.08481 206.628 6.33552 207.307 6.60656C207.998 6.86404 208.591 7.28413 209.086 7.86686C209.595 8.43611 209.849 9.21529 209.849 10.2046C209.849 11.0584 209.621 11.8309 209.165 12.522C208.708 13.2131 208.024 13.7688 207.111 14.1889C206.198 14.5954 205.09 14.7987 203.786 14.7987Z" fill="white"/>
<path fill-rule="evenodd" clip-rule="evenodd" d="M223.528 24.7677C223.847 24.013 224.006 23.1752 224.006 22.2545C224.006 21.3337 223.847 20.5036 223.528 19.7639C223.209 19.0243 222.774 18.3978 222.224 17.8847C221.673 17.3715 221.036 16.979 220.311 16.7073C219.587 16.4357 218.812 16.2998 217.986 16.2998C217.175 16.2998 216.4 16.4357 215.661 16.7073C214.936 16.979 214.299 17.3715 213.748 17.8847C213.212 18.3978 212.785 19.0243 212.466 19.7639C212.147 20.5036 211.988 21.3337 211.988 22.2545C211.988 23.1752 212.147 24.013 212.466 24.7677C212.785 25.5074 213.212 26.1413 213.748 26.6696C214.299 27.1828 214.936 27.5828 215.661 27.8696C216.4 28.1564 217.175 28.2998 217.986 28.2998C218.812 28.2998 219.587 28.1564 220.311 27.8696C221.036 27.5828 221.673 27.1828 222.224 26.6696C222.774 26.1413 223.209 25.5074 223.528 24.7677ZM218.891 21.4601C218.727 21.5234 218.561 21.5879 218.393 21.5995C218.317 21.6051 218.273 21.5119 218.242 21.4453C217.916 20.7489 217.544 19.6763 217.882 18.9266C217.994 18.6779 218.195 18.4797 218.452 18.4047C218.775 18.3101 219.099 18.4026 219.333 18.6184C219.447 18.7233 219.54 18.8587 219.601 19.0156C219.631 19.094 219.685 19.1004 219.76 19.0814C220.151 18.9832 220.729 19.0856 220.975 19.4416C221.191 19.7548 221.16 20.1906 221.028 20.5331C220.975 20.6725 220.905 20.8253 220.779 20.9059C220.459 21.1123 220.091 21.1779 219.724 21.2434C219.528 21.2783 219.333 21.3133 219.144 21.3696C219.061 21.3944 218.976 21.4271 218.891 21.4601ZM217.44 21.8804C217.576 21.8405 217.715 21.8167 217.852 21.797C217.999 21.7756 217.886 21.4001 217.851 21.2836L217.845 21.2658L217.844 21.2611C217.604 20.4224 217.285 19.3617 216.343 19.1592C215.94 19.0723 215.325 19.2615 215.159 19.6868C215.119 19.7891 215.114 19.8917 215.109 19.9958C215.106 20.0514 215.103 20.1072 215.095 20.1639C214.563 20.3755 214.115 21.0089 214.288 21.6037C214.422 22.0589 214.848 22.2938 215.291 22.3127C215.934 22.3403 216.504 22.1659 217.097 21.984C217.21 21.9492 217.325 21.9143 217.44 21.8804ZM219.509 21.6079C220.318 21.4635 221.439 21.5027 221.77 22.4528C221.906 22.8424 221.887 23.276 221.507 23.5128C221.396 23.5823 221.41 23.6882 221.424 23.7979C221.429 23.8351 221.433 23.8726 221.433 23.9094C221.433 24.039 221.433 24.156 221.404 24.2793C221.338 24.5575 221.159 24.7599 220.945 24.9267C220.798 25.0415 220.614 25.1186 220.424 25.0969C219.908 25.0374 219.569 24.8545 219.328 24.3634C219.208 24.1201 219.143 23.8495 219.079 23.5812C219.05 23.4577 219.021 23.3347 218.986 23.215C218.87 22.8151 218.73 22.4219 218.564 22.0415C218.553 22.0178 218.552 21.996 218.575 21.9638C218.594 21.9349 218.639 21.9035 218.668 21.884C218.891 21.7326 219.248 21.6541 219.509 21.6079ZM218.324 22.6486C218.341 22.6994 218.358 22.7493 218.377 22.7961C218.482 23.0574 218.581 23.318 218.65 23.5927C218.77 24.0705 218.798 24.6114 218.585 25.0661C218.398 25.464 217.903 25.8613 217.468 25.9075C217.44 25.9109 217.41 25.9132 217.381 25.9138C217.13 25.9243 216.877 25.8571 216.667 25.7114C216.603 25.6672 216.555 25.604 216.508 25.5409C216.449 25.463 216.391 25.3852 216.302 25.3443C216.191 25.2927 216.071 25.2848 215.952 25.2766C215.804 25.2668 215.656 25.2568 215.523 25.1656C215.374 25.0632 215.25 24.9239 215.172 24.7557C214.925 24.2247 215.146 23.5345 215.526 23.1345C215.989 22.6461 216.637 22.3758 217.28 22.2798C217.306 22.2758 217.345 22.2682 217.392 22.259C217.616 22.2155 218.025 22.136 218.117 22.2342C218.219 22.3434 218.272 22.4999 218.324 22.6486Z" fill="white"/>
<path d="M234.046 3.30332C235.807 3.30332 237.15 3.72342 238.076 4.56365C239.002 5.39031 239.464 6.66419 239.464 8.38528V11.9904C239.464 13.3787 238.355 14.504 236.985 14.504H236.002V13.0811C235.468 14.1516 234.424 14.6869 232.873 14.6869C232.051 14.6869 231.34 14.5378 230.74 14.2397C230.14 13.9416 229.684 13.5417 229.371 13.0405C229.071 12.5254 228.921 11.9426 228.921 11.2921C228.921 10.2487 229.306 9.44231 230.075 8.87314C230.845 8.29041 232.031 7.99908 233.635 7.99908H235.748C235.683 6.8336 234.933 6.25087 233.498 6.25087C232.99 6.25087 232.475 6.33895 231.953 6.51513C231.432 6.67774 230.988 6.90813 230.623 7.20627L229.371 4.58398C229.958 4.17742 230.669 3.86572 231.503 3.64889C232.351 3.41851 233.198 3.30332 234.046 3.30332ZM233.909 12.2475C234.34 12.2475 234.718 12.1392 235.044 11.9223C235.37 11.7055 235.604 11.387 235.748 10.9669V10.0116H234.144C233.062 10.0116 232.52 10.3843 232.52 11.1296C232.52 11.4683 232.644 11.7394 232.892 11.9426C233.14 12.1459 233.479 12.2475 233.909 12.2475Z" fill="white"/>
<path d="M243.494 4.80759C243.872 4.30616 244.361 3.93348 244.961 3.68955C245.574 3.43207 246.271 3.30332 247.054 3.30332V6.77938C246.715 6.73873 246.435 6.7184 246.213 6.7184C245.417 6.7184 244.791 6.942 244.335 7.38924C243.892 7.83644 243.67 8.52074 243.67 9.44231V11.9904C243.67 13.3787 242.56 14.504 241.191 14.504H239.953V3.48627H243.494V4.80759Z" fill="white"/>
<path d="M253.574 22.4829C253.574 22.51 253.554 22.8285 253.516 23.4383H245.808C245.965 24.0075 246.265 24.448 246.708 24.7597C247.164 25.0578 247.732 25.2067 248.41 25.2067C248.919 25.2067 249.355 25.1323 249.72 24.9833C250.423 24.7066 251.265 24.6941 251.779 25.2509L252.812 26.3655C251.781 27.5581 250.275 28.1543 248.292 28.1543C247.054 28.1543 245.965 27.9104 245.026 27.4226C244.087 26.9347 243.357 26.2571 242.835 25.3898C242.327 24.5225 242.072 23.5399 242.072 22.4423C242.072 21.3581 242.32 20.3892 242.816 19.5354C243.324 18.6681 244.022 17.9904 244.909 17.5026C245.795 17.0147 246.793 16.7708 247.902 16.7708C248.958 16.7708 249.916 17.0012 250.777 17.4619C251.637 17.9092 252.316 18.5664 252.812 19.4338C253.32 20.2875 253.574 21.3038 253.574 22.4829ZM247.921 19.515C247.347 19.515 246.864 19.6845 246.473 20.0233C246.095 20.362 245.854 20.8228 245.75 21.4055H250.092C249.988 20.8228 249.74 20.362 249.349 20.0233C248.971 19.6845 248.495 19.515 247.921 19.515Z" fill="white"/>
<path d="M258.758 28.1543C257.871 28.1543 256.997 28.0528 256.137 27.8494C255.276 27.6326 254.585 27.3549 254.063 27.016L254.439 26.1269C254.826 25.2083 255.951 24.8549 256.899 25.1255C257.565 25.3017 258.223 25.3898 258.875 25.3898C259.475 25.3898 259.899 25.3288 260.147 25.2067C260.407 25.0713 260.538 24.8816 260.538 24.6376C260.538 24.3938 260.382 24.2244 260.068 24.1294C259.768 24.021 259.286 23.9194 258.621 23.8246C257.773 23.7161 257.05 23.5739 256.45 23.3976C255.862 23.2215 255.354 22.8962 254.924 22.4219C254.493 21.9476 254.278 21.2836 254.278 20.4298C254.278 19.7251 254.481 19.1017 254.885 18.5597C255.289 18.004 255.876 17.5703 256.645 17.2587C257.427 16.9334 258.36 16.7708 259.442 16.7708C260.212 16.7708 260.975 16.8521 261.731 17.0147C262.487 17.1772 263.12 17.4077 263.628 17.7059L263.61 17.7496C263.025 19.1251 261.358 19.6249 259.884 19.5287C259.744 19.5195 259.604 19.515 259.462 19.515C258.875 19.515 258.445 19.5895 258.171 19.7387C257.897 19.8741 257.76 20.0571 257.76 20.2875C257.76 20.545 257.91 20.728 258.21 20.8364C258.51 20.9312 259.006 21.0329 259.697 21.1413C260.57 21.2768 261.294 21.4326 261.868 21.6088C262.442 21.785 262.937 22.1103 263.355 22.5846C263.785 23.0454 264 23.6957 264 24.536C264 25.2271 263.798 25.8506 263.394 26.4062C262.989 26.9483 262.39 27.3751 261.594 27.6868C260.811 27.9986 259.866 28.1543 258.758 28.1543Z" fill="white"/>
<path d="M228.443 23.4594V25.2745C228.443 26.6626 227.333 27.788 225.964 27.788H224.696L224.727 19.2838C224.727 17.8957 225.837 16.7704 227.206 16.7704L228.39 8.39985L228.443 21.405L231.495 17.6783C231.966 17.1031 232.665 16.7704 233.402 16.7704H236.639L231.402 22.2025L237.011 27.788H232.512L228.443 23.4594Z" fill="white"/>
<path d="M224.148 3.30332C225.452 3.30332 226.489 3.70988 227.259 4.52299C228.041 5.3361 228.432 6.56256 228.432 8.20231V11.9904C228.432 13.3787 228.626 17.65 227.257 17.65L224.696 27.75V8.85007C224.696 8.07752 224.572 7.49082 224.285 7.12495C224.011 6.75905 223.62 6.5761 223.112 6.5761C222.551 6.5761 222.101 6.7794 221.762 7.18594C221.423 7.59247 221.253 8.20909 221.253 9.03578V11.9905C221.253 13.3787 220.143 14.504 218.774 14.504H217.537V8.83255C217.537 7.32825 217.002 6.5761 215.933 6.5761C215.359 6.5761 214.903 6.7794 214.564 7.18594C214.224 7.59247 214.055 8.20909 214.055 9.03578V11.9905C214.055 13.3787 212.945 14.504 211.576 14.504H210.338V3.48627H213.879V4.64495C214.27 4.19774 214.733 3.86572 215.268 3.64889C215.815 3.41851 216.409 3.30332 217.048 3.30332C217.791 3.30332 218.456 3.44561 219.043 3.73021C219.63 4.01479 220.106 4.44846 220.471 5.03119C220.888 4.47556 221.416 4.04867 222.055 3.75054C222.694 3.4524 223.392 3.30332 224.148 3.30332Z" fill="white"/>
<path d="M224.696 9.80018H228.439V25.3001H224.696V9.80018Z" fill="white"/>
</g>
</g>
<defs>
<clipPath id="clip0_0_224">
<rect width="114" height="29" fill="white" transform="translate(0 1)"/>
</clipPath>
<clipPath id="clip1_0_224">
<rect width="66" height="31" fill="white" transform="translate(198)"/>
</clipPath>
</defs>
</svg>
